<svg width="27" height="24" viewBox="0 0 27 24" fill="none" xmlns="http://www.w3.org/2000/svg">
<path d="M27 11.988C27 5.37 20.952 0 13.5 0C6.048 0 0 5.37 0 11.988C0 15.633 1.863 18.918 4.779 21.123C4.806 21.147 4.833 21.147 4.833 21.171C5.076 21.339 5.319 21.507 5.589 21.675C5.724 21.747 5.832 21.8415 5.967 21.9375C8.19799 23.282 10.8316 24.0005 13.527 24C16.2224 24.0005 18.856 23.282 21.087 21.9375C21.222 21.8655 21.33 21.771 21.465 21.6975C21.708 21.531 21.978 21.363 22.221 21.195C22.248 21.171 22.275 21.171 22.275 21.147C25.137 18.9165 27 15.633 27 11.988V11.988ZM13.5 22.4895C10.962 22.4895 8.64 21.7695 6.723 20.571C6.75 20.379 6.804 20.1885 6.858 19.9965C7.01888 19.4762 7.25484 18.9765 7.56 18.51C7.857 18.054 8.208 17.646 8.64 17.286C9.045 16.926 9.531 16.5915 10.017 16.3275C10.53 16.0635 11.07 15.8715 11.664 15.7275C12.2626 15.5841 12.88 15.5119 13.5 15.513C15.3405 15.5014 17.1133 16.129 18.441 17.262C19.062 17.814 19.548 18.462 19.899 19.2045C20.088 19.6365 20.223 20.0925 20.304 20.571C18.3114 21.8162 15.9358 22.4861 13.5 22.4895ZM9.369 11.3895C9.1311 10.9053 9.01147 10.3818 9.018 9.8535C9.018 9.327 9.126 8.799 9.369 8.319C9.612 7.839 9.936 7.4085 10.341 7.0485C10.746 6.6885 11.232 6.402 11.772 6.186C12.312 5.97 12.906 5.874 13.5 5.874C14.121 5.874 14.688 5.97 15.228 6.186C15.768 6.402 16.254 6.69 16.659 7.0485C17.064 7.4085 17.388 7.8405 17.631 8.319C17.874 8.799 17.982 9.327 17.982 9.8535C17.982 10.4055 17.874 10.9095 17.631 11.388C17.3965 11.8609 17.0671 12.2919 16.659 12.66C16.2448 13.0222 15.7599 13.3145 15.228 13.5225C14.1123 13.9301 12.8607 13.9301 11.745 13.5225C11.2131 13.3145 10.7282 13.0222 10.314 12.66C9.90531 12.2973 9.58381 11.8645 9.369 11.388V11.3895ZM21.897 19.3485C21.897 19.3005 21.87 19.2765 21.87 19.2285C21.6045 18.4776 21.2131 17.7666 20.709 17.1195C20.2045 16.4676 19.5844 15.8926 18.873 15.417C18.3297 15.0537 17.7407 14.7476 17.118 14.505C17.4013 14.3389 17.6638 14.1463 17.901 13.9305C18.3035 13.5773 18.6571 13.1824 18.954 12.7545C19.552 11.8812 19.8608 10.8757 19.845 9.8535C19.8534 9.09677 19.688 8.34648 19.359 7.6485C19.0342 6.97596 18.5667 6.36533 17.982 5.85C17.3982 5.34005 16.7111 4.93289 15.957 4.65C15.1705 4.35809 14.3253 4.21161 13.473 4.2195C12.6206 4.21209 11.7754 4.35908 10.989 4.6515C10.2284 4.93378 9.53962 5.34958 8.964 5.874C8.39032 6.39238 7.93225 7.00263 7.614 7.6725C7.28502 8.37048 7.11965 9.12077 7.128 9.8775C7.128 10.4055 7.209 10.9095 7.371 11.388C7.533 11.892 7.749 12.348 8.046 12.7785C8.316 13.2105 8.694 13.5945 9.099 13.9545C9.342 14.1705 9.612 14.361 9.909 14.529C9.28435 14.7781 8.69521 15.0923 8.154 15.465C7.452 15.945 6.831 16.5195 6.318 17.1435C5.80881 17.7879 5.41701 18.4997 5.157 19.2525C5.13 19.3005 5.13 19.3485 5.13 19.3725C2.997 17.454 1.674 14.865 1.674 11.988C1.674 6.21 6.993 1.4865 13.5 1.4865C20.007 1.4865 25.326 6.21 25.326 11.988C25.3225 14.7479 24.0896 17.3943 21.897 19.3485V19.3485Z" fill="url(#paint0_linear_238_11288)"/>
<defs>
<linearGradient id="paint0_linear_238_11288" x1="13.5" y1="0" x2="13.5" y2="24" gradientUnits="userSpaceOnUse">
<stop offset="0.291667" stop-color="#10A9F3"/>
<stop offset="0.614583" stop-color="#2F00FF"/>
<stop offset="0.880208" stop-color="#2F00FF" stop-opacity="0.56"/>
</linearGradient>
</defs>
</svg>
