<svg width="27" height="28" viewBox="0 0 27 28" fill="none" xmlns="http://www.w3.org/2000/svg">
<path d="M24.2733 24.9628H24.7733V24.4628V3.65709V3.15709H24.2733H2.20667H1.70667V3.65709V24.4628V24.9628H2.20667H24.2733ZM2.20667 1.31995H24.2733C25.1058 1.31995 25.98 2.24267 25.98 3.65709V24.4628C25.98 25.8772 25.1058 26.7999 24.2733 26.7999H2.20667C1.37421 26.7999 0.5 25.8772 0.5 24.4628V3.65709C0.5 2.24267 1.37421 1.31995 2.20667 1.31995ZM12.0044 10.2771C12.0044 12.2116 10.7992 13.5599 9.56222 13.5599C8.3252 13.5599 7.12 12.2117 7.12 10.2771C7.12 8.34253 8.3252 6.99423 9.56222 6.99423C10.7992 6.99423 12.0044 8.34253 12.0044 10.2771ZM13.6813 21.1257H5.44311C5.19426 21.1257 4.91333 20.8885 4.91333 20.4908V19.3559C4.91333 17.7057 6.11784 16.4514 7.50267 16.4514C7.55411 16.4514 7.60993 16.4619 7.69971 16.4948C7.76468 16.5186 7.81279 16.5394 7.873 16.5655C7.92586 16.5884 7.98804 16.6154 8.07913 16.6519C8.42175 16.7893 8.86895 16.9242 9.56222 16.9242C10.2381 16.9242 10.6911 16.7888 11.0376 16.6536C11.1316 16.6169 11.196 16.5897 11.2512 16.5665C11.3126 16.5406 11.3626 16.5196 11.4292 16.4955C11.5253 16.4607 11.5793 16.4514 11.6218 16.4514C13.0066 16.4514 14.2111 17.7057 14.2111 19.3559V20.4908C14.2111 20.8885 13.9302 21.1257 13.6813 21.1257ZM21.5667 17.3428H16.6822V16.4514H21.5667V17.3428ZM21.5667 13.5599H16.6822V12.6685H21.5667V13.5599ZM21.5667 9.77709H16.6822V8.88566H21.5667V9.77709Z" fill="url(#paint0_linear_238_12355)" stroke="url(#paint1_linear_238_12355)"/>
<defs>
<linearGradient id="paint0_linear_238_12355" x1="13.24" y1="0.819946" x2="13.24" y2="27.2999" gradientUnits="userSpaceOnUse">
<stop offset="0.291667" stop-color="#10A9F3"/>
<stop offset="0.614583" stop-color="#2F00FF"/>
<stop offset="0.880208" stop-color="#2F00FF" stop-opacity="0.56"/>
</linearGradient>
<linearGradient id="paint1_linear_238_12355" x1="13.24" y1="0.819946" x2="13.24" y2="27.2999" gradientUnits="userSpaceOnUse">
<stop offset="0.291667" stop-color="#10A9F3"/>
<stop offset="0.614583" stop-color="#2F00FF"/>
<stop offset="0.880208" stop-color="#2F00FF" stop-opacity="0.56"/>
</linearGradient>
</defs>
</svg>
