<svg width="27" height="27" viewBox="0 0 27 27" fill="none" xmlns="http://www.w3.org/2000/svg">
<path d="M13.336 0C14.9413 0 16.48 0.284 17.9053 0.802666L16.312 2.39467C13.9007 1.73899 11.3403 1.89843 9.02895 2.84819C6.71761 3.79796 4.78486 5.48483 3.53125 7.6465C2.27763 9.80816 1.7734 12.3235 2.09697 14.8013C2.42053 17.2791 3.55376 19.5806 5.32043 21.3479C7.0871 23.1152 9.38821 24.2492 11.8659 24.5735C14.3437 24.8979 16.8591 24.3946 19.0212 23.1417C21.1833 21.8888 22.8708 19.9566 23.8214 17.6456C24.7719 15.3345 24.9322 12.7742 24.2773 10.3627L25.8693 8.77067C26.4018 10.2338 26.6735 11.779 26.672 13.336C26.672 20.7013 20.7013 26.672 13.336 26.672C5.97067 26.672 0 20.7013 0 13.336C0 5.97067 5.97067 0 13.336 0ZM13.336 5.336C14.0116 5.33569 14.6845 5.42081 15.3387 5.58933V7.67867C14.0557 7.22476 12.6565 7.22051 11.3707 7.66662C10.085 8.11273 8.9891 8.98269 8.26295 10.1337C7.5368 11.2847 7.22353 12.6484 7.37456 14.0009C7.52558 15.3535 8.13193 16.6145 9.09408 17.577C10.0562 18.5395 11.317 19.1463 12.6695 19.2978C14.022 19.4493 15.3858 19.1366 16.537 18.4108C17.6883 17.6851 18.5587 16.5895 19.0053 15.304C19.4518 14.0184 19.4481 12.6192 18.9947 11.336H21.084C21.5011 12.9515 21.4027 14.6569 20.8025 16.2137C20.2024 17.7705 19.1305 19.1007 17.7369 20.0181C16.3433 20.9355 14.6977 21.3942 13.0305 21.3301C11.3632 21.2659 9.7578 20.6821 8.4388 19.6604C7.11981 18.6386 6.15329 17.23 5.6745 15.6317C5.19571 14.0334 5.22863 12.3254 5.76863 10.7468C6.30863 9.16811 7.3287 7.7978 8.68608 6.8276C10.0435 5.8574 11.6702 5.33587 13.3387 5.336H13.336ZM16.0027 13.336C16.0025 13.9091 15.8176 14.467 15.4755 14.9268C15.1334 15.3867 14.6523 15.7241 14.1034 15.889C13.5545 16.0539 12.967 16.0376 12.4281 15.8425C11.8892 15.6474 11.4275 15.2838 11.1115 14.8057C10.7954 14.3276 10.6418 13.7603 10.6734 13.1881C10.705 12.6158 10.9202 12.0689 11.287 11.6285C11.6538 11.1881 12.1527 10.8776 12.7098 10.743C13.2669 10.6085 13.8526 10.6569 14.38 10.8813L16.6733 8.588L16.672 4.336C16.6722 4.07087 16.7777 3.81669 16.9653 3.62933L20.2987 0.296C20.4385 0.156325 20.6166 0.0612254 20.8105 0.0227129C21.0044 -0.0157997 21.2053 0.00400218 21.3879 0.0796173C21.5705 0.155232 21.7266 0.283269 21.8365 0.447557C21.9464 0.611844 22.0052 0.805013 22.0053 1.00267V4.66933H25.672C25.8697 4.66951 26.0628 4.72825 26.2271 4.83814C26.3914 4.94804 26.5194 5.10415 26.5951 5.28677C26.6707 5.46939 26.6905 5.67032 26.652 5.86418C26.6134 6.05805 26.5183 6.23615 26.3787 6.376L23.0453 9.70933C22.858 9.89692 22.6038 10.0024 22.3387 10.0027H18.0853L15.792 12.296C15.928 12.616 16.0027 12.9667 16.0027 13.336ZM21.924 8.00267L23.2573 6.66933H21.004C20.7388 6.66933 20.4844 6.56398 20.2969 6.37644C20.1094 6.1889 20.004 5.93455 20.004 5.66933V3.416L18.672 4.74933V7.924C18.7002 7.9486 18.7269 7.97487 18.752 8.00267H21.9253H21.924Z" fill="url(#paint0_linear_238_12141)"/>
<defs>
<linearGradient id="paint0_linear_238_12141" x1="13.336" y1="0" x2="13.336" y2="26.672" gradientUnits="userSpaceOnUse">
<stop offset="0.291667" stop-color="#10A9F3"/>
<stop offset="0.614583" stop-color="#2F00FF"/>
<stop offset="0.880208" stop-color="#2F00FF" stop-opacity="0.56"/>
</linearGradient>
</defs>
</svg>
