<svg width="11" height="18" viewBox="0 0 11 18" fill="none" xmlns="http://www.w3.org/2000/svg">
<path d="M4.75 15.75V14.9475C3.50041 14.7668 2.35773 14.142 1.5313 13.1875C0.704862 12.2329 0.249988 11.0126 0.25 9.75V6C0.25 5.31056 0.385795 4.62787 0.649632 3.99091C0.91347 3.35395 1.30018 2.7752 1.78769 2.28769C2.2752 1.80018 2.85395 1.41347 3.49091 1.14963C4.12787 0.885795 4.81056 0.75 5.5 0.75C6.18944 0.75 6.87213 0.885795 7.50909 1.14963C8.14605 1.41347 8.7248 1.80018 9.21231 2.28769C9.69982 2.7752 10.0865 3.35395 10.3504 3.99091C10.6142 4.62787 10.75 5.31056 10.75 6V9.75C10.75 11.0126 10.2951 12.2329 9.4687 13.1875C8.64227 14.142 7.49959 14.7668 6.25 14.9475V15.75H9.25V17.25H1.75V15.75H4.75ZM5.5 2.25C4.50544 2.25 3.55161 2.64509 2.84835 3.34835C2.14509 4.05161 1.75 5.00544 1.75 6V9.75C1.75 10.7446 2.14509 11.6984 2.84835 12.4017C3.55161 13.1049 4.50544 13.5 5.5 13.5C6.49456 13.5 7.44839 13.1049 8.15165 12.4017C8.85491 11.6984 9.25 10.7446 9.25 9.75V6C9.25 5.00544 8.85491 4.05161 8.15165 3.34835C7.44839 2.64509 6.49456 2.25 5.5 2.25ZM5.5 6.75C5.69891 6.75 5.88968 6.67098 6.03033 6.53033C6.17098 6.38968 6.25 6.19891 6.25 6C6.25 5.80109 6.17098 5.61032 6.03033 5.46967C5.88968 5.32902 5.69891 5.25 5.5 5.25C5.30109 5.25 5.11032 5.32902 4.96967 5.46967C4.82902 5.61032 4.75 5.80109 4.75 6C4.75 6.19891 4.82902 6.38968 4.96967 6.53033C5.11032 6.67098 5.30109 6.75 5.5 6.75ZM5.5 8.25C4.90326 8.25 4.33097 8.01295 3.90901 7.59099C3.48705 7.16903 3.25 6.59674 3.25 6C3.25 5.40326 3.48705 4.83097 3.90901 4.40901C4.33097 3.98705 4.90326 3.75 5.5 3.75C6.09674 3.75 6.66903 3.98705 7.09099 4.40901C7.51295 4.83097 7.75 5.40326 7.75 6C7.75 6.59674 7.51295 7.16903 7.09099 7.59099C6.66903 8.01295 6.09674 8.25 5.5 8.25Z" fill="#57F0D9"/>
</svg>
