<svg width="32" height="22" viewBox="0 0 32 22" fill="none" xmlns="http://www.w3.org/2000/svg">
<path d="M0 3.66667C0 2.69421 0.416968 1.76157 1.15918 1.07394C1.90138 0.386308 2.90803 0 3.95767 0H27.7037C28.7533 0 29.76 0.386308 30.5022 1.07394C31.2444 1.76157 31.6614 2.69421 31.6614 3.66667V12.8333H0V3.66667ZM22.7566 5.5C22.4942 5.5 22.2425 5.59658 22.057 5.76849C21.8714 5.94039 21.7672 6.17355 21.7672 6.41667V8.25C21.7672 8.49312 21.8714 8.72627 22.057 8.89818C22.2425 9.07009 22.4942 9.16667 22.7566 9.16667H26.7143C26.9767 9.16667 27.2284 9.07009 27.4139 8.89818C27.5995 8.72627 27.7037 8.49312 27.7037 8.25V6.41667C27.7037 6.17355 27.5995 5.94039 27.4139 5.76849C27.2284 5.59658 26.9767 5.5 26.7143 5.5H22.7566ZM0 16.5V18.3333C0 19.3058 0.416968 20.2384 1.15918 20.9261C1.90138 21.6137 2.90803 22 3.95767 22H27.7037C28.7533 22 29.76 21.6137 30.5022 20.9261C31.2444 20.2384 31.6614 19.3058 31.6614 18.3333V16.5H0Z" fill="url(#paint0_linear_238_11772)"/>
<defs>
<linearGradient id="paint0_linear_238_11772" x1="15.8307" y1="0" x2="15.8307" y2="22" gradientUnits="userSpaceOnUse">
<stop offset="0.291667" stop-color="#10A9F3"/>
<stop offset="0.614583" stop-color="#2F00FF"/>
<stop offset="0.880208" stop-color="#2F00FF" stop-opacity="0.56"/>
</linearGradient>
</defs>
</svg>
