<svg width="20" height="20" viewBox="0 0 20 20" fill="none" xmlns="http://www.w3.org/2000/svg">
<path d="M4.455 16L0 19.5V1C0 0.734784 0.105357 0.48043 0.292893 0.292893C0.48043 0.105357 0.734784 0 1 0H19C19.2652 0 19.5196 0.105357 19.7071 0.292893C19.8946 0.48043 20 0.734784 20 1V15C20 15.2652 19.8946 15.5196 19.7071 15.7071C19.5196 15.8946 19.2652 16 19 16H4.455ZM3.763 14H18V2H2V15.385L3.763 14ZM9.293 9.121L13.536 4.879L14.95 6.293L9.293 11.95L5.403 8.06L6.818 6.646L9.293 9.121Z" fill="#8F9BBA"/>
</svg>
