<svg width="48" height="48" viewBox="0 0 48 48" fill="none" xmlns="http://www.w3.org/2000/svg">
<path d="M36 19.5C36 26.1274 30.6274 26.25 24 26.25C17.3726 26.25 12 26.1274 12 19.5C12 12.8726 17.3726 6 24 6C30.6274 6 36 12.8726 36 19.5Z" fill="#6454E2"/>
<circle cx="24" cy="15" r="9" fill="#E9E3FF"/>
<path fill-rule="evenodd" clip-rule="evenodd" d="M24 6C24 10.1421 20.6421 13.5 16.5 13.5C16.0376 13.5 15.585 13.4582 15.1458 13.3781C15.9095 9.18164 19.5832 6 24 6ZM32.8542 13.3781C32.0905 9.18164 28.4168 6 24 6C24 10.1421 27.3579 13.5 31.5 13.5C31.9624 13.5 32.415 13.4582 32.8542 13.3781Z" fill="#6454E2"/>
<path fill-rule="evenodd" clip-rule="evenodd" d="M37.6468 39C38.2159 39 38.6433 38.477 38.4887 37.9293C36.7108 31.628 30.8994 27 24 27C17.1006 27 11.2892 31.628 9.51128 37.9293C9.35672 38.477 9.78408 39 10.3532 39H37.6468ZM41.8365 39.2308C40.5009 30.6044 33.0238 24 24 24C14.9762 24 7.49913 30.6044 6.16351 39.2308C6.09282 39.6873 6.03934 40.1495 6.00374 40.6167C5.94563 41.3792 6.57283 42 7.3396 42H40.6604C41.4272 42 42.0544 41.3792 41.9963 40.6167C41.9607 40.1495 41.9072 39.6873 41.8365 39.2308Z" fill="#4318FF"/>
</svg>
