<svg width="17" height="15" viewBox="0 0 17 15" fill="none" xmlns="http://www.w3.org/2000/svg">
<path d="M14.5 13.9999C14.5 14.1989 14.421 14.3896 14.2803 14.5303C14.1397 14.6709 13.9489 14.7499 13.75 14.7499H3.25C3.05109 14.7499 2.86032 14.6709 2.71967 14.5303C2.57902 14.3896 2.5 14.1989 2.5 13.9999V7.24994H0.25L7.99525 0.20894C8.13333 0.0832983 8.31331 0.0136719 8.5 0.0136719C8.68669 0.0136719 8.86667 0.0832983 9.00475 0.20894L16.75 7.24994H14.5V13.9999ZM13 13.2499V5.86769L8.5 1.77719L4 5.86769V13.2499H13ZM8.5 11.7499L5.98075 9.23069C5.82405 9.07399 5.69975 8.88796 5.61494 8.68322C5.53014 8.47848 5.48649 8.25905 5.48649 8.03744C5.48649 7.81583 5.53014 7.5964 5.61494 7.39166C5.69975 7.18692 5.82405 7.00089 5.98075 6.84419C6.13745 6.68749 6.32348 6.56319 6.52822 6.47838C6.73296 6.39358 6.95239 6.34993 7.174 6.34993C7.39561 6.34993 7.61504 6.39358 7.81978 6.47838C8.02452 6.56319 8.21055 6.68749 8.36725 6.84419L8.5 6.97694L8.63275 6.84419C8.78945 6.68749 8.97548 6.56319 9.18022 6.47838C9.38496 6.39358 9.60439 6.34993 9.826 6.34993C10.0476 6.34993 10.267 6.39358 10.4718 6.47838C10.6765 6.56319 10.8626 6.68749 11.0192 6.84419C11.176 7.00089 11.3003 7.18692 11.3851 7.39166C11.4699 7.5964 11.5135 7.81583 11.5135 8.03744C11.5135 8.25905 11.4699 8.47848 11.3851 8.68322C11.3003 8.88796 11.176 9.07399 11.0192 9.23069L8.5 11.7499Z" fill="#FFD75F"/>
</svg>
