<svg width="27" height="27" viewBox="0 0 27 27" fill="none" xmlns="http://www.w3.org/2000/svg">
<mask id="path-1-inside-1_238_12413" fill="white">
<path d="M0.717946 0.352051C0.544111 0.352051 0.377395 0.431308 0.254476 0.572386C0.131556 0.713465 0.0625 0.904808 0.0625 1.10432V22.4688C0.0625 22.6684 0.131556 22.8597 0.254476 23.0008C0.377395 23.1419 0.544111 23.2211 0.717946 23.2211H18.2524C18.0233 22.8751 17.7947 22.5287 17.5645 22.183C17.2782 21.6982 16.8624 21.2833 16.7404 20.6941C15.0546 21.4927 13.1177 21.5667 11.3878 20.9038C11.3498 20.8897 11.3126 20.8722 11.2748 20.8575C11.0763 21.0802 10.8624 21.4683 10.8286 21.7166H8.33606C8.52325 20.9887 8.12579 19.8521 8.50175 19.1113C8.53164 19.1023 8.56782 19.0442 8.58434 18.9843C8.54187 18.9386 8.49887 18.8941 8.45745 18.8474C8.08882 18.9762 7.94148 19.2949 7.73646 19.5744C7.84841 20.1834 7.04037 20.0393 7.12191 20.6607C7.68481 21.1617 6.60227 20.7798 6.28032 20.8199C5.9387 20.8241 4.93928 20.4136 5.28614 21.2532C5.23187 21.4837 5.28194 21.6251 5.38183 21.7166H5.22872C5.20486 21.453 4.77227 21.4139 4.60552 21.2845C4.32473 21.2062 3.98941 21.1671 3.69865 21.0185C3.62393 21.2568 2.94961 21.5294 2.802 21.7166H1.37339V10.7241C1.57448 10.8787 2.02543 10.8174 1.41088 10.4833H1.37339V7.01868C1.49268 6.94948 1.57789 6.92751 1.57265 7.04336C1.86812 6.92901 1.99685 6.10362 2.5081 6.44154C2.82691 6.4954 3.35441 7.06262 3.08935 7.13363C3.29594 7.71258 3.4425 7.33976 3.69603 8.02974C3.52247 8.97339 4.18709 9.6727 4.55178 10.2742C4.98857 10.4824 5.16134 11.1306 5.87132 11.1559C5.9678 11.2528 6.09155 11.3406 6.22054 11.4249C6.25594 11.1138 6.30601 10.805 6.3692 10.4999C6.35216 10.4954 6.33564 10.4927 6.31729 10.4858C5.63431 11.2088 5.49431 9.95706 6.16129 9.90801C6.20586 9.9047 6.25384 9.90741 6.30549 9.91553C6.38283 9.905 6.44706 9.91553 6.50133 9.9375C6.72035 9.11337 7.04489 8.33119 7.46432 7.61659C7.68955 7.23085 7.94238 6.8673 8.22017 6.52971C8.08227 6.26491 7.94122 6.11716 7.77473 6.46291C7.76215 5.94986 6.55351 5.41213 7.44282 5.90442C7.90923 6.36571 8.06208 5.82438 8.13575 5.45486C8.53557 4.97642 7.72597 4.81302 7.87358 4.50038C7.62818 4.0782 7.2648 3.6458 6.89146 3.38431C6.16732 3.4806 5.91353 3.30517 6.88176 3.30457C6.96906 2.7855 7.11405 2.41779 7.21394 1.98087C7.10906 1.94627 6.99947 1.95168 6.89146 1.95138C6.42819 1.88007 6.15316 2.08559 6.1626 2.49151C5.81469 2.45962 6.12721 1.77896 5.59079 1.98689C4.77751 1.97214 5.76068 2.2875 5.68517 2.33293C5.5921 2.57246 5.00613 2.42321 5.07509 2.66604C4.80661 2.09612 4.68444 2.93776 4.47548 2.36122C4.34964 2.2228 5.00246 2.49783 4.85381 1.99321C4.52504 1.84877 4.40732 2.10153 4.15117 2.20475C3.38666 2.69041 4.28462 3.14719 4.6729 3.30908C5.25809 3.13004 5.25756 2.90376 5.66446 3.15261C6.12065 3.44299 5.20381 3.23897 5.23187 3.68582C5.17943 3.40808 5.11389 3.24047 4.83074 3.59645C4.4532 3.67469 4.28462 3.07919 4.00278 3.12101C3.36044 3.02081 3.60033 4.67882 4.12941 4.11431C4.44953 4.75013 3.72041 4.28102 3.50411 4.21C3.01568 4.83619 2.48948 4.19375 1.9064 4.16788C1.71973 4.02524 1.53673 4.02344 1.37339 4.09596V1.85659H8.24849C7.75822 1.87194 7.32038 1.94627 7.49866 2.35099C7.46982 3.13155 8.34969 2.51167 8.47632 3.21761C8.8418 3.7108 8.25898 4.75946 8.89109 4.57531C8.65854 4.89999 8.68764 5.41725 8.86907 5.82498C9.54021 5.17846 10.3014 4.66619 11.1207 4.3096C11.1351 4.21692 11.1238 4.1104 11.0756 3.98462C10.9935 3.5125 11.3752 3.36174 11.2415 2.83816C11.4214 2.44397 11.2819 2.02691 10.9736 1.85659H25.2316V3.98643C25.1909 3.96642 25.1492 3.94953 25.1066 3.93587C24.7371 4.32014 25.0358 4.35654 25.2316 4.27018V4.606C24.7948 4.32405 24.315 4.29305 23.8491 4.41041C23.6376 3.98823 22.8885 3.99816 22.6421 3.61811C22.2079 3.02111 22.7745 3.19925 23.1533 3.15321C23.0458 2.78008 22.4009 2.60315 22.1285 2.66484C21.6364 2.97417 22.387 3.25161 22.3112 3.66686C22.3112 3.96867 21.9906 3.97078 21.7108 3.95423C21.8238 3.63467 21.1752 3.24168 20.918 3.50166C20.4311 3.33255 20.2455 3.43185 20.5667 2.8499C20.4545 2.40244 19.9907 2.39402 19.7828 2.08348C19.5172 2.72983 19.0744 2.53394 18.5998 2.92753C18.4097 3.24649 18.0138 3.53296 17.9942 3.74359C17.7 3.90217 17.4056 3.09303 17.1993 3.80979C17.0121 4.41643 17.2097 4.71041 16.5782 4.21391C15.9245 3.4144 17.8911 2.72953 17.1602 2.3892C16.5535 2.59232 16.1888 3.0831 16.0682 3.7803C16.0029 3.93888 16.0326 4.04932 16.1015 4.13869C18.4045 4.92707 20.3103 7.05269 21.085 9.66036C21.0971 9.50329 21.1199 9.35223 21.1657 9.2418C21.3595 9.07209 21.2059 9.89327 21.6062 9.42626C21.3113 10.153 22.3476 9.52255 22.4879 9.22254C22.2824 8.63035 23.2273 8.35141 23.2052 8.23977C22.8573 7.82091 23.055 8.23767 22.6712 8.33366C22.544 8.13927 22.915 7.07345 22.4213 7.17125C21.6841 6.95339 23.0485 6.33021 23.4168 6.5595C23.5846 5.84695 23.8258 6.41446 23.4113 6.74215C23.2535 7.37436 23.329 8.23676 23.7933 7.39181C24.002 7.15861 23.9501 6.55077 24.2217 6.44485C24.5867 6.24746 25.2379 6.09309 25.2209 5.48285C25.2245 5.48164 25.2279 5.48194 25.2316 5.48104V21.7166H24.1936C24.4186 21.3591 24.7162 20.7477 24.401 20.5259C23.9262 20.4317 23.5715 19.7745 22.9976 19.8019C22.7386 19.4595 22.1421 19.2861 21.9816 19.2193C21.8212 19.1525 21.5428 19.5386 21.2575 19.368C21.1717 19.3521 21.084 19.3539 20.9987 19.3734C21.8571 20.6523 22.7074 21.938 23.5607 23.2211H25.8871C26.0609 23.2211 26.2276 23.1419 26.3505 23.0008C26.4734 22.8597 26.5425 22.6684 26.5425 22.4688V1.10432C26.5425 0.904808 26.4734 0.713465 26.3505 0.572386C26.2276 0.431308 26.0609 0.352051 25.8871 0.352051H0.717946ZM13.4834 1.95289C13.0613 2.19151 13.8098 3.14148 13.8305 2.23454C13.9079 2.36694 14.4267 2.50054 14.2571 2.07355C13.8801 1.81868 13.9372 2.11177 13.4831 1.95319L13.4834 1.95289ZM19.5347 1.95349C19.0793 2.20806 19.9333 2.21287 19.5347 1.95349V1.95349ZM5.06774 2.03985C4.72691 2.33053 5.56798 2.6182 5.11231 2.05519L5.06774 2.03985ZM7.85863 2.21227C7.94384 2.30615 7.77447 2.27275 7.85863 2.21227V2.21227ZM4.56672 2.58419C4.60683 2.63745 4.54575 2.5881 4.56672 2.58419V2.58419ZM5.7342 2.70817C6.14503 2.79001 5.70274 2.90075 5.7342 2.70817V2.70817ZM6.30968 2.76233C6.70033 2.73374 6.45309 2.87367 6.30968 2.76233V2.76233ZM5.16265 2.78219C5.4167 2.81228 5.13014 2.9173 5.16265 2.78219V2.78219ZM5.97593 3.20587C6.23286 3.27387 5.84956 3.29765 5.97593 3.20587V3.20587ZM6.15709 3.67499C6.00241 4.2413 6.70688 5.00801 6.16024 4.36256C6.01001 4.10438 5.93188 3.85704 6.15709 3.67499ZM5.24 3.73216C5.46521 4.16396 5.80814 4.27921 5.52105 4.42786C5.33045 4.32194 5.2864 3.99184 5.24 3.73186V3.73216ZM8.7739 4.16757C8.80562 4.19195 8.68843 4.17359 8.7739 4.16757V4.16757ZM3.45797 4.30389C3.42861 4.4405 3.41733 4.30599 3.45797 4.30389V4.30389ZM5.48828 4.52475C5.46993 4.80941 5.36846 4.51964 5.48828 4.52475V4.52475ZM6.99528 4.52656C6.89722 5.08324 7.2863 5.04773 7.26008 5.1037C6.93865 5.26619 7.01547 5.93541 6.76954 5.42477C6.61433 5.34172 6.84925 4.6069 6.9549 4.54251L6.99528 4.52656ZM5.41513 4.52716C5.44948 4.53619 5.41277 4.65745 5.41513 4.52716V4.52716ZM24.3801 4.57711C24.3905 4.59757 24.3344 4.62827 24.3801 4.57711V4.57711ZM5.43401 4.64993C5.61281 4.86478 5.19438 4.84552 5.43401 4.64993V4.64993ZM13.7655 4.94572C12.3358 4.95712 10.9481 5.50141 9.81133 6.49661C6.90378 9.03778 6.338 13.8283 8.55209 17.1653C10.6246 20.2891 14.4092 21.0425 17.2695 19.0424L17.8159 19.866C17.7084 20.1531 17.7184 20.4275 17.8434 20.6165L21.8076 26.591C22.0435 26.9464 22.6132 26.9039 23.0799 26.4959C23.5466 26.0882 23.7335 25.4692 23.4978 25.1135L19.5337 19.139C19.4084 18.95 19.1805 18.8658 18.9108 18.9085L18.3644 18.0852C20.805 15.4523 21.1791 11.065 19.1069 7.94127C17.9997 6.27273 16.4025 5.27672 14.7188 5.01493C14.4029 4.96585 14.0843 4.94272 13.7655 4.94572ZM6.32253 5.7004C6.48639 6.14695 7.11929 5.88486 6.87153 6.4936C7.14734 6.7915 6.82775 7.84167 6.72052 6.94677C6.03413 6.94286 5.70641 6.15688 6.28268 5.74434L6.32253 5.7004ZM6.92056 5.77443C7.1303 5.97905 6.59021 5.88847 6.92056 5.77443V5.77443ZM23.3927 6.32449C23.411 6.30944 23.4567 6.41747 23.3927 6.32449V6.32449ZM14.0295 6.63172C14.7904 6.66501 15.5353 6.89173 16.2105 7.29554C16.8857 7.69934 17.4744 8.27015 17.9341 8.96677C18.346 9.58475 18.6474 10.29 18.8212 11.0421C18.9949 11.7941 19.0375 12.5781 18.9466 13.3491C18.8556 14.1201 18.6328 14.8629 18.2911 15.5348C17.9494 16.2068 17.4954 16.7946 16.9552 17.2646C16.4167 17.7374 15.8022 18.0834 15.1469 18.2828C14.4917 18.4822 13.8085 18.5311 13.1367 18.4268C12.465 18.3223 11.8177 18.0667 11.2323 17.6744C10.6468 17.2822 10.1346 16.7611 9.72508 16.141C9.31325 15.523 9.01182 14.8178 8.83811 14.0657C8.66439 13.3137 8.6218 12.5296 8.71279 11.7586C8.80378 10.9876 9.02654 10.2449 9.3683 9.57293C9.71006 8.90101 10.1641 8.31318 10.7043 7.84318C11.6558 7.00696 12.832 6.57846 14.0295 6.63172ZM24.1465 6.94165C23.7348 7.33253 24.6407 7.26092 24.1465 6.94165V6.94165ZM24.6367 7.26724C24.1811 7.52271 25.035 7.52301 24.6367 7.26724V7.26724ZM24.9335 7.3864C24.5271 7.77457 25.3478 7.57055 24.9335 7.3864V7.3864ZM24.9173 7.47065C24.9398 7.47035 24.9034 7.49803 24.9173 7.47065V7.47065ZM24.9561 7.5191C24.9684 7.54197 24.9233 7.52391 24.9561 7.5191V7.5191ZM13.8557 7.83264C13.2826 7.82091 12.7168 7.96805 12.1951 8.23225C12.2223 8.27047 12.2614 8.30718 12.3185 8.34028C11.7942 8.14469 11.6416 8.90508 11.8624 9.24722L12.2171 9.28062L12.5136 9.13076C12.7053 8.90207 12.753 8.94149 12.8148 8.59515L12.9305 8.6123L13.0222 8.56837L13.2312 8.68692C13.4818 8.79946 13.4936 9.042 13.4097 9.11301C13.291 9.19696 13.431 9.2093 13.4425 9.26136C13.5018 9.2418 13.5364 9.18312 13.5736 9.15183L13.6407 9.12414C13.8856 8.93969 13.7146 8.8789 13.5445 8.63005L13.6347 8.65653C13.7666 8.82805 13.8442 9.02214 13.9223 9.22826C13.9312 9.23638 13.9393 9.24691 13.9496 9.25053C14.0088 9.27309 14.0924 9.26557 14.164 9.243C14.2348 9.22074 14.2395 9.06577 14.2275 8.91742C14.3284 9.44582 15.3184 9.28874 14.7293 9.61101C14.3898 9.61974 13.8502 9.4061 13.7508 9.67601C13.5311 9.56167 13.4189 9.48674 13.3743 9.42806C13.2391 9.36969 12.8497 9.20057 12.8358 9.20057C12.8193 9.20057 12.3238 9.30409 12.3238 9.30409L11.9148 9.48223C11.7819 9.97391 11.5721 9.71092 11.5008 10.0922C11.445 10.3359 10.9644 10.8625 11.2161 11.2771C11.4408 12.4766 12.7435 11.678 13.0471 12.2539C12.9045 12.6087 13.61 13.2836 13.2152 13.8647C13.4013 14.7087 13.9016 16.1197 14.7065 14.9184C14.9188 14.1993 15.3761 13.8105 15.3598 13.097C15.1168 12.3944 16.5475 11.8735 15.9751 11.3045C15.838 11.3232 15.8223 11.3572 15.7135 11.3987C15.4849 11.3888 15.4259 11.1772 15.348 11.0442C15.2886 10.9472 15.236 10.8449 15.1907 10.7382C15.3362 10.997 15.4864 11.2167 15.6972 11.3518C16.0619 11.2579 16.4801 10.9483 16.6503 10.7211C16.6461 9.83549 17.6832 10.7542 17.6623 11.4198C17.7265 11.5991 17.808 11.7237 17.8898 11.7965C17.8317 11.3708 17.721 10.9568 17.5611 10.567C17.2703 9.83459 16.8047 9.20569 16.2389 8.73507C16.2284 8.75373 16.2022 8.75493 16.2074 8.70979C16.1309 8.6476 16.0527 8.58829 15.9728 8.53195C15.9814 8.57378 15.9919 8.61621 16.004 8.65924C15.9696 8.60056 15.9335 8.54098 15.9036 8.48351C15.2859 8.06585 14.5775 7.82632 13.856 7.83234L13.8557 7.83264ZM22.3862 7.87236C22.5763 8.49404 21.725 9.93479 21.6012 8.98904C21.6885 8.52142 22.3872 8.59214 22.3862 7.87266V7.87236ZM6.42609 8.03636C6.46437 8.03124 6.42006 8.05893 6.42609 8.03636V8.03636ZM6.83011 8.25512C6.9064 8.32794 6.73782 8.30989 6.83011 8.25512V8.25512ZM14.7028 8.27498C14.9144 8.4796 15.5635 8.75042 14.8764 8.53436C14.5187 8.72183 14.4081 8.60177 14.7028 8.27498ZM13.0673 8.63908C13.0212 8.65533 13.0602 8.76516 13.0314 8.79976C13.228 8.9102 13.1179 8.69535 13.147 8.66014C13.1072 8.63848 13.0825 8.63336 13.0673 8.63908ZM16.0648 8.86326C16.1256 9.0447 16.166 9.16055 16.0098 8.93548C16.0227 8.92827 16.0342 8.91816 16.0436 8.90576C16.0531 8.89336 16.0603 8.8789 16.0648 8.86326ZM13.0857 8.88582C13.0086 8.8762 12.9677 8.93547 12.9674 9.01822C13.1706 9.14491 13.1497 8.93577 13.1746 8.91983C13.1469 8.90232 13.1167 8.89079 13.0854 8.88582H13.0857ZM16.225 10.1746C16.3409 10.18 16.1141 10.3672 16.1529 10.1851C16.1852 10.177 16.2085 10.1737 16.225 10.1746ZM24.2112 11.3518C23.8337 11.8122 24.6611 11.8931 24.2112 11.3518V11.3518ZM24.185 11.4234C24.2238 11.4186 24.1779 11.4541 24.185 11.4234V11.4234ZM24.2175 11.4893C24.2212 11.5203 24.1782 11.4818 24.2175 11.4893V11.4893ZM24.492 11.5495C24.1263 11.9148 24.9335 11.7818 24.492 11.5495V11.5495ZM24.5313 11.6533C24.5591 11.6479 24.5261 11.6975 24.5313 11.6533V11.6533ZM24.4797 11.6692C24.5038 11.7065 24.4584 11.6903 24.4797 11.6692V11.6692ZM21.4916 12.1423C21.4982 12.33 21.4995 12.5175 21.4958 12.705C21.7965 12.76 22.1733 12.7444 22.1804 13.1262C22.7194 13.153 22.1248 14.0566 22.1051 13.2201C21.8855 13.1838 21.6615 13.2274 21.4646 13.3447C21.4099 14.0013 21.2928 14.6491 21.1154 15.2765C21.5559 15.1161 22.0052 15.1318 22.2706 15.6232C22.9693 15.6202 22.3749 16.1669 22.8702 16.2786C23.0812 15.7839 22.759 15.8461 23.1549 15.4429C23.539 14.8793 23.2876 14.1514 22.9045 13.8436C22.8248 13.4951 22.5073 13.3068 22.6568 13.0691C22.9478 13.5219 23.3602 13.1828 23.0159 12.9379C23.27 12.6655 24.1777 13.6396 23.668 12.8903C23.4163 12.8368 23.0705 12.2395 22.9921 12.624C22.9695 12.943 22.2761 12.1399 22.0202 12.4684C21.9463 12.1723 21.5844 12.3511 21.564 12.4832C21.6752 12.2846 21.6052 12.182 21.4916 12.1423ZM22.8256 12.3995C22.4499 12.6445 23.1649 12.6361 22.8256 12.3995V12.3995ZM13.011 12.4206C13.0411 12.4988 13.0023 12.4335 13.011 12.4206V12.4206ZM9.71983 12.4573C9.71205 12.8751 9.75251 13.2923 9.84017 13.698C10.1417 13.1738 10.1299 12.6815 9.71983 12.4573ZM22.8062 12.4718C22.8287 12.4904 22.7784 12.479 22.8062 12.4718V12.4718ZM23.0602 12.5079C23.1827 12.6072 22.9375 12.6072 23.0602 12.5079V12.5079ZM23.0602 12.5109C22.9486 12.603 23.1717 12.603 23.0602 12.5109V12.5109ZM22.8314 12.5371C22.8356 12.5674 22.7926 12.5316 22.8314 12.5371V12.5371ZM21.4937 12.8638C21.4911 12.9361 21.4856 13.0083 21.4814 13.0805C21.5661 12.971 21.6028 12.8578 21.4937 12.8638ZM15.5179 13.1759C15.2148 13.367 15.8422 13.4542 15.58 13.23L15.5688 13.1978L15.5179 13.1759ZM15.8724 13.2294C15.573 13.4443 15.1084 14.4686 15.7526 14.5008C15.9078 14.2889 16.3013 13.3444 15.8724 13.2294ZM23.9936 13.8818C23.7537 14.425 24.6902 14.2077 23.9936 13.8818V13.8818ZM16.3522 13.954C15.9626 14.254 16.73 14.2161 16.3522 13.954V13.954ZM24.6189 15.1926C24.8407 15.7688 24.105 16.114 24.1606 16.649C24.5381 16.8578 24.7329 16.0718 24.9988 15.8314C25.3131 15.516 24.7513 15.4228 24.6189 15.1926ZM7.18195 16.9649C7.22495 17.2821 7.35446 17.589 7.5857 17.6826C7.44112 17.451 7.30638 17.2115 7.18195 16.9649Z"/>
</mask>
<path d="M0.717946 0.352051C0.544111 0.352051 0.377395 0.431308 0.254476 0.572386C0.131556 0.713465 0.0625 0.904808 0.0625 1.10432V22.4688C0.0625 22.6684 0.131556 22.8597 0.254476 23.0008C0.377395 23.1419 0.544111 23.2211 0.717946 23.2211H18.2524C18.0233 22.8751 17.7947 22.5287 17.5645 22.183C17.2782 21.6982 16.8624 21.2833 16.7404 20.6941C15.0546 21.4927 13.1177 21.5667 11.3878 20.9038C11.3498 20.8897 11.3126 20.8722 11.2748 20.8575C11.0763 21.0802 10.8624 21.4683 10.8286 21.7166H8.33606C8.52325 20.9887 8.12579 19.8521 8.50175 19.1113C8.53164 19.1023 8.56782 19.0442 8.58434 18.9843C8.54187 18.9386 8.49887 18.8941 8.45745 18.8474C8.08882 18.9762 7.94148 19.2949 7.73646 19.5744C7.84841 20.1834 7.04037 20.0393 7.12191 20.6607C7.68481 21.1617 6.60227 20.7798 6.28032 20.8199C5.9387 20.8241 4.93928 20.4136 5.28614 21.2532C5.23187 21.4837 5.28194 21.6251 5.38183 21.7166H5.22872C5.20486 21.453 4.77227 21.4139 4.60552 21.2845C4.32473 21.2062 3.98941 21.1671 3.69865 21.0185C3.62393 21.2568 2.94961 21.5294 2.802 21.7166H1.37339V10.7241C1.57448 10.8787 2.02543 10.8174 1.41088 10.4833H1.37339V7.01868C1.49268 6.94948 1.57789 6.92751 1.57265 7.04336C1.86812 6.92901 1.99685 6.10362 2.5081 6.44154C2.82691 6.4954 3.35441 7.06262 3.08935 7.13363C3.29594 7.71258 3.4425 7.33976 3.69603 8.02974C3.52247 8.97339 4.18709 9.6727 4.55178 10.2742C4.98857 10.4824 5.16134 11.1306 5.87132 11.1559C5.9678 11.2528 6.09155 11.3406 6.22054 11.4249C6.25594 11.1138 6.30601 10.805 6.3692 10.4999C6.35216 10.4954 6.33564 10.4927 6.31729 10.4858C5.63431 11.2088 5.49431 9.95706 6.16129 9.90801C6.20586 9.9047 6.25384 9.90741 6.30549 9.91553C6.38283 9.905 6.44706 9.91553 6.50133 9.9375C6.72035 9.11337 7.04489 8.33119 7.46432 7.61659C7.68955 7.23085 7.94238 6.8673 8.22017 6.52971C8.08227 6.26491 7.94122 6.11716 7.77473 6.46291C7.76215 5.94986 6.55351 5.41213 7.44282 5.90442C7.90923 6.36571 8.06208 5.82438 8.13575 5.45486C8.53557 4.97642 7.72597 4.81302 7.87358 4.50038C7.62818 4.0782 7.2648 3.6458 6.89146 3.38431C6.16732 3.4806 5.91353 3.30517 6.88176 3.30457C6.96906 2.7855 7.11405 2.41779 7.21394 1.98087C7.10906 1.94627 6.99947 1.95168 6.89146 1.95138C6.42819 1.88007 6.15316 2.08559 6.1626 2.49151C5.81469 2.45962 6.12721 1.77896 5.59079 1.98689C4.77751 1.97214 5.76068 2.2875 5.68517 2.33293C5.5921 2.57246 5.00613 2.42321 5.07509 2.66604C4.80661 2.09612 4.68444 2.93776 4.47548 2.36122C4.34964 2.2228 5.00246 2.49783 4.85381 1.99321C4.52504 1.84877 4.40732 2.10153 4.15117 2.20475C3.38666 2.69041 4.28462 3.14719 4.6729 3.30908C5.25809 3.13004 5.25756 2.90376 5.66446 3.15261C6.12065 3.44299 5.20381 3.23897 5.23187 3.68582C5.17943 3.40808 5.11389 3.24047 4.83074 3.59645C4.4532 3.67469 4.28462 3.07919 4.00278 3.12101C3.36044 3.02081 3.60033 4.67882 4.12941 4.11431C4.44953 4.75013 3.72041 4.28102 3.50411 4.21C3.01568 4.83619 2.48948 4.19375 1.9064 4.16788C1.71973 4.02524 1.53673 4.02344 1.37339 4.09596V1.85659H8.24849C7.75822 1.87194 7.32038 1.94627 7.49866 2.35099C7.46982 3.13155 8.34969 2.51167 8.47632 3.21761C8.8418 3.7108 8.25898 4.75946 8.89109 4.57531C8.65854 4.89999 8.68764 5.41725 8.86907 5.82498C9.54021 5.17846 10.3014 4.66619 11.1207 4.3096C11.1351 4.21692 11.1238 4.1104 11.0756 3.98462C10.9935 3.5125 11.3752 3.36174 11.2415 2.83816C11.4214 2.44397 11.2819 2.02691 10.9736 1.85659H25.2316V3.98643C25.1909 3.96642 25.1492 3.94953 25.1066 3.93587C24.7371 4.32014 25.0358 4.35654 25.2316 4.27018V4.606C24.7948 4.32405 24.315 4.29305 23.8491 4.41041C23.6376 3.98823 22.8885 3.99816 22.6421 3.61811C22.2079 3.02111 22.7745 3.19925 23.1533 3.15321C23.0458 2.78008 22.4009 2.60315 22.1285 2.66484C21.6364 2.97417 22.387 3.25161 22.3112 3.66686C22.3112 3.96867 21.9906 3.97078 21.7108 3.95423C21.8238 3.63467 21.1752 3.24168 20.918 3.50166C20.4311 3.33255 20.2455 3.43185 20.5667 2.8499C20.4545 2.40244 19.9907 2.39402 19.7828 2.08348C19.5172 2.72983 19.0744 2.53394 18.5998 2.92753C18.4097 3.24649 18.0138 3.53296 17.9942 3.74359C17.7 3.90217 17.4056 3.09303 17.1993 3.80979C17.0121 4.41643 17.2097 4.71041 16.5782 4.21391C15.9245 3.4144 17.8911 2.72953 17.1602 2.3892C16.5535 2.59232 16.1888 3.0831 16.0682 3.7803C16.0029 3.93888 16.0326 4.04932 16.1015 4.13869C18.4045 4.92707 20.3103 7.05269 21.085 9.66036C21.0971 9.50329 21.1199 9.35223 21.1657 9.2418C21.3595 9.07209 21.2059 9.89327 21.6062 9.42626C21.3113 10.153 22.3476 9.52255 22.4879 9.22254C22.2824 8.63035 23.2273 8.35141 23.2052 8.23977C22.8573 7.82091 23.055 8.23767 22.6712 8.33366C22.544 8.13927 22.915 7.07345 22.4213 7.17125C21.6841 6.95339 23.0485 6.33021 23.4168 6.5595C23.5846 5.84695 23.8258 6.41446 23.4113 6.74215C23.2535 7.37436 23.329 8.23676 23.7933 7.39181C24.002 7.15861 23.9501 6.55077 24.2217 6.44485C24.5867 6.24746 25.2379 6.09309 25.2209 5.48285C25.2245 5.48164 25.2279 5.48194 25.2316 5.48104V21.7166H24.1936C24.4186 21.3591 24.7162 20.7477 24.401 20.5259C23.9262 20.4317 23.5715 19.7745 22.9976 19.8019C22.7386 19.4595 22.1421 19.2861 21.9816 19.2193C21.8212 19.1525 21.5428 19.5386 21.2575 19.368C21.1717 19.3521 21.084 19.3539 20.9987 19.3734C21.8571 20.6523 22.7074 21.938 23.5607 23.2211H25.8871C26.0609 23.2211 26.2276 23.1419 26.3505 23.0008C26.4734 22.8597 26.5425 22.6684 26.5425 22.4688V1.10432C26.5425 0.904808 26.4734 0.713465 26.3505 0.572386C26.2276 0.431308 26.0609 0.352051 25.8871 0.352051H0.717946ZM13.4834 1.95289C13.0613 2.19151 13.8098 3.14148 13.8305 2.23454C13.9079 2.36694 14.4267 2.50054 14.2571 2.07355C13.8801 1.81868 13.9372 2.11177 13.4831 1.95319L13.4834 1.95289ZM19.5347 1.95349C19.0793 2.20806 19.9333 2.21287 19.5347 1.95349V1.95349ZM5.06774 2.03985C4.72691 2.33053 5.56798 2.6182 5.11231 2.05519L5.06774 2.03985ZM7.85863 2.21227C7.94384 2.30615 7.77447 2.27275 7.85863 2.21227V2.21227ZM4.56672 2.58419C4.60683 2.63745 4.54575 2.5881 4.56672 2.58419V2.58419ZM5.7342 2.70817C6.14503 2.79001 5.70274 2.90075 5.7342 2.70817V2.70817ZM6.30968 2.76233C6.70033 2.73374 6.45309 2.87367 6.30968 2.76233V2.76233ZM5.16265 2.78219C5.4167 2.81228 5.13014 2.9173 5.16265 2.78219V2.78219ZM5.97593 3.20587C6.23286 3.27387 5.84956 3.29765 5.97593 3.20587V3.20587ZM6.15709 3.67499C6.00241 4.2413 6.70688 5.00801 6.16024 4.36256C6.01001 4.10438 5.93188 3.85704 6.15709 3.67499ZM5.24 3.73216C5.46521 4.16396 5.80814 4.27921 5.52105 4.42786C5.33045 4.32194 5.2864 3.99184 5.24 3.73186V3.73216ZM8.7739 4.16757C8.80562 4.19195 8.68843 4.17359 8.7739 4.16757V4.16757ZM3.45797 4.30389C3.42861 4.4405 3.41733 4.30599 3.45797 4.30389V4.30389ZM5.48828 4.52475C5.46993 4.80941 5.36846 4.51964 5.48828 4.52475V4.52475ZM6.99528 4.52656C6.89722 5.08324 7.2863 5.04773 7.26008 5.1037C6.93865 5.26619 7.01547 5.93541 6.76954 5.42477C6.61433 5.34172 6.84925 4.6069 6.9549 4.54251L6.99528 4.52656ZM5.41513 4.52716C5.44948 4.53619 5.41277 4.65745 5.41513 4.52716V4.52716ZM24.3801 4.57711C24.3905 4.59757 24.3344 4.62827 24.3801 4.57711V4.57711ZM5.43401 4.64993C5.61281 4.86478 5.19438 4.84552 5.43401 4.64993V4.64993ZM13.7655 4.94572C12.3358 4.95712 10.9481 5.50141 9.81133 6.49661C6.90378 9.03778 6.338 13.8283 8.55209 17.1653C10.6246 20.2891 14.4092 21.0425 17.2695 19.0424L17.8159 19.866C17.7084 20.1531 17.7184 20.4275 17.8434 20.6165L21.8076 26.591C22.0435 26.9464 22.6132 26.9039 23.0799 26.4959C23.5466 26.0882 23.7335 25.4692 23.4978 25.1135L19.5337 19.139C19.4084 18.95 19.1805 18.8658 18.9108 18.9085L18.3644 18.0852C20.805 15.4523 21.1791 11.065 19.1069 7.94127C17.9997 6.27273 16.4025 5.27672 14.7188 5.01493C14.4029 4.96585 14.0843 4.94272 13.7655 4.94572ZM6.32253 5.7004C6.48639 6.14695 7.11929 5.88486 6.87153 6.4936C7.14734 6.7915 6.82775 7.84167 6.72052 6.94677C6.03413 6.94286 5.70641 6.15688 6.28268 5.74434L6.32253 5.7004ZM6.92056 5.77443C7.1303 5.97905 6.59021 5.88847 6.92056 5.77443V5.77443ZM23.3927 6.32449C23.411 6.30944 23.4567 6.41747 23.3927 6.32449V6.32449ZM14.0295 6.63172C14.7904 6.66501 15.5353 6.89173 16.2105 7.29554C16.8857 7.69934 17.4744 8.27015 17.9341 8.96677C18.346 9.58475 18.6474 10.29 18.8212 11.0421C18.9949 11.7941 19.0375 12.5781 18.9466 13.3491C18.8556 14.1201 18.6328 14.8629 18.2911 15.5348C17.9494 16.2068 17.4954 16.7946 16.9552 17.2646C16.4167 17.7374 15.8022 18.0834 15.1469 18.2828C14.4917 18.4822 13.8085 18.5311 13.1367 18.4268C12.465 18.3223 11.8177 18.0667 11.2323 17.6744C10.6468 17.2822 10.1346 16.7611 9.72508 16.141C9.31325 15.523 9.01182 14.8178 8.83811 14.0657C8.66439 13.3137 8.6218 12.5296 8.71279 11.7586C8.80378 10.9876 9.02654 10.2449 9.3683 9.57293C9.71006 8.90101 10.1641 8.31318 10.7043 7.84318C11.6558 7.00696 12.832 6.57846 14.0295 6.63172ZM24.1465 6.94165C23.7348 7.33253 24.6407 7.26092 24.1465 6.94165V6.94165ZM24.6367 7.26724C24.1811 7.52271 25.035 7.52301 24.6367 7.26724V7.26724ZM24.9335 7.3864C24.5271 7.77457 25.3478 7.57055 24.9335 7.3864V7.3864ZM24.9173 7.47065C24.9398 7.47035 24.9034 7.49803 24.9173 7.47065V7.47065ZM24.9561 7.5191C24.9684 7.54197 24.9233 7.52391 24.9561 7.5191V7.5191ZM13.8557 7.83264C13.2826 7.82091 12.7168 7.96805 12.1951 8.23225C12.2223 8.27047 12.2614 8.30718 12.3185 8.34028C11.7942 8.14469 11.6416 8.90508 11.8624 9.24722L12.2171 9.28062L12.5136 9.13076C12.7053 8.90207 12.753 8.94149 12.8148 8.59515L12.9305 8.6123L13.0222 8.56837L13.2312 8.68692C13.4818 8.79946 13.4936 9.042 13.4097 9.11301C13.291 9.19696 13.431 9.2093 13.4425 9.26136C13.5018 9.2418 13.5364 9.18312 13.5736 9.15183L13.6407 9.12414C13.8856 8.93969 13.7146 8.8789 13.5445 8.63005L13.6347 8.65653C13.7666 8.82805 13.8442 9.02214 13.9223 9.22826C13.9312 9.23638 13.9393 9.24691 13.9496 9.25053C14.0088 9.27309 14.0924 9.26557 14.164 9.243C14.2348 9.22074 14.2395 9.06577 14.2275 8.91742C14.3284 9.44582 15.3184 9.28874 14.7293 9.61101C14.3898 9.61974 13.8502 9.4061 13.7508 9.67601C13.5311 9.56167 13.4189 9.48674 13.3743 9.42806C13.2391 9.36969 12.8497 9.20057 12.8358 9.20057C12.8193 9.20057 12.3238 9.30409 12.3238 9.30409L11.9148 9.48223C11.7819 9.97391 11.5721 9.71092 11.5008 10.0922C11.445 10.3359 10.9644 10.8625 11.2161 11.2771C11.4408 12.4766 12.7435 11.678 13.0471 12.2539C12.9045 12.6087 13.61 13.2836 13.2152 13.8647C13.4013 14.7087 13.9016 16.1197 14.7065 14.9184C14.9188 14.1993 15.3761 13.8105 15.3598 13.097C15.1168 12.3944 16.5475 11.8735 15.9751 11.3045C15.838 11.3232 15.8223 11.3572 15.7135 11.3987C15.4849 11.3888 15.4259 11.1772 15.348 11.0442C15.2886 10.9472 15.236 10.8449 15.1907 10.7382C15.3362 10.997 15.4864 11.2167 15.6972 11.3518C16.0619 11.2579 16.4801 10.9483 16.6503 10.7211C16.6461 9.83549 17.6832 10.7542 17.6623 11.4198C17.7265 11.5991 17.808 11.7237 17.8898 11.7965C17.8317 11.3708 17.721 10.9568 17.5611 10.567C17.2703 9.83459 16.8047 9.20569 16.2389 8.73507C16.2284 8.75373 16.2022 8.75493 16.2074 8.70979C16.1309 8.6476 16.0527 8.58829 15.9728 8.53195C15.9814 8.57378 15.9919 8.61621 16.004 8.65924C15.9696 8.60056 15.9335 8.54098 15.9036 8.48351C15.2859 8.06585 14.5775 7.82632 13.856 7.83234L13.8557 7.83264ZM22.3862 7.87236C22.5763 8.49404 21.725 9.93479 21.6012 8.98904C21.6885 8.52142 22.3872 8.59214 22.3862 7.87266V7.87236ZM6.42609 8.03636C6.46437 8.03124 6.42006 8.05893 6.42609 8.03636V8.03636ZM6.83011 8.25512C6.9064 8.32794 6.73782 8.30989 6.83011 8.25512V8.25512ZM14.7028 8.27498C14.9144 8.4796 15.5635 8.75042 14.8764 8.53436C14.5187 8.72183 14.4081 8.60177 14.7028 8.27498ZM13.0673 8.63908C13.0212 8.65533 13.0602 8.76516 13.0314 8.79976C13.228 8.9102 13.1179 8.69535 13.147 8.66014C13.1072 8.63848 13.0825 8.63336 13.0673 8.63908ZM16.0648 8.86326C16.1256 9.0447 16.166 9.16055 16.0098 8.93548C16.0227 8.92827 16.0342 8.91816 16.0436 8.90576C16.0531 8.89336 16.0603 8.8789 16.0648 8.86326ZM13.0857 8.88582C13.0086 8.8762 12.9677 8.93547 12.9674 9.01822C13.1706 9.14491 13.1497 8.93577 13.1746 8.91983C13.1469 8.90232 13.1167 8.89079 13.0854 8.88582H13.0857ZM16.225 10.1746C16.3409 10.18 16.1141 10.3672 16.1529 10.1851C16.1852 10.177 16.2085 10.1737 16.225 10.1746ZM24.2112 11.3518C23.8337 11.8122 24.6611 11.8931 24.2112 11.3518V11.3518ZM24.185 11.4234C24.2238 11.4186 24.1779 11.4541 24.185 11.4234V11.4234ZM24.2175 11.4893C24.2212 11.5203 24.1782 11.4818 24.2175 11.4893V11.4893ZM24.492 11.5495C24.1263 11.9148 24.9335 11.7818 24.492 11.5495V11.5495ZM24.5313 11.6533C24.5591 11.6479 24.5261 11.6975 24.5313 11.6533V11.6533ZM24.4797 11.6692C24.5038 11.7065 24.4584 11.6903 24.4797 11.6692V11.6692ZM21.4916 12.1423C21.4982 12.33 21.4995 12.5175 21.4958 12.705C21.7965 12.76 22.1733 12.7444 22.1804 13.1262C22.7194 13.153 22.1248 14.0566 22.1051 13.2201C21.8855 13.1838 21.6615 13.2274 21.4646 13.3447C21.4099 14.0013 21.2928 14.6491 21.1154 15.2765C21.5559 15.1161 22.0052 15.1318 22.2706 15.6232C22.9693 15.6202 22.3749 16.1669 22.8702 16.2786C23.0812 15.7839 22.759 15.8461 23.1549 15.4429C23.539 14.8793 23.2876 14.1514 22.9045 13.8436C22.8248 13.4951 22.5073 13.3068 22.6568 13.0691C22.9478 13.5219 23.3602 13.1828 23.0159 12.9379C23.27 12.6655 24.1777 13.6396 23.668 12.8903C23.4163 12.8368 23.0705 12.2395 22.9921 12.624C22.9695 12.943 22.2761 12.1399 22.0202 12.4684C21.9463 12.1723 21.5844 12.3511 21.564 12.4832C21.6752 12.2846 21.6052 12.182 21.4916 12.1423ZM22.8256 12.3995C22.4499 12.6445 23.1649 12.6361 22.8256 12.3995V12.3995ZM13.011 12.4206C13.0411 12.4988 13.0023 12.4335 13.011 12.4206V12.4206ZM9.71983 12.4573C9.71205 12.8751 9.75251 13.2923 9.84017 13.698C10.1417 13.1738 10.1299 12.6815 9.71983 12.4573ZM22.8062 12.4718C22.8287 12.4904 22.7784 12.479 22.8062 12.4718V12.4718ZM23.0602 12.5079C23.1827 12.6072 22.9375 12.6072 23.0602 12.5079V12.5079ZM23.0602 12.5109C22.9486 12.603 23.1717 12.603 23.0602 12.5109V12.5109ZM22.8314 12.5371C22.8356 12.5674 22.7926 12.5316 22.8314 12.5371V12.5371ZM21.4937 12.8638C21.4911 12.9361 21.4856 13.0083 21.4814 13.0805C21.5661 12.971 21.6028 12.8578 21.4937 12.8638ZM15.5179 13.1759C15.2148 13.367 15.8422 13.4542 15.58 13.23L15.5688 13.1978L15.5179 13.1759ZM15.8724 13.2294C15.573 13.4443 15.1084 14.4686 15.7526 14.5008C15.9078 14.2889 16.3013 13.3444 15.8724 13.2294ZM23.9936 13.8818C23.7537 14.425 24.6902 14.2077 23.9936 13.8818V13.8818ZM16.3522 13.954C15.9626 14.254 16.73 14.2161 16.3522 13.954V13.954ZM24.6189 15.1926C24.8407 15.7688 24.105 16.114 24.1606 16.649C24.5381 16.8578 24.7329 16.0718 24.9988 15.8314C25.3131 15.516 24.7513 15.4228 24.6189 15.1926ZM7.18195 16.9649C7.22495 17.2821 7.35446 17.589 7.5857 17.6826C7.44112 17.451 7.30638 17.2115 7.18195 16.9649Z" fill="url(#paint0_linear_238_12413)" stroke="url(#paint1_linear_238_12413)" stroke-width="2" mask="url(#path-1-inside-1_238_12413)"/>
<defs>
<linearGradient id="paint0_linear_238_12413" x1="13.3025" y1="0.352051" x2="13.3025" y2="26.8321" gradientUnits="userSpaceOnUse">
<stop offset="0.291667" stop-color="#10A9F3"/>
<stop offset="0.614583" stop-color="#2F00FF"/>
<stop offset="0.880208" stop-color="#2F00FF" stop-opacity="0.56"/>
</linearGradient>
<linearGradient id="paint1_linear_238_12413" x1="13.3025" y1="0.352051" x2="13.3025" y2="26.8321" gradientUnits="userSpaceOnUse">
<stop offset="0.291667" stop-color="#10A9F3"/>
<stop offset="0.614583" stop-color="#2F00FF"/>
<stop offset="0.880208" stop-color="#2F00FF" stop-opacity="0.56"/>
</linearGradient>
</defs>
</svg>
