<svg width="35" height="25" viewBox="0 0 35 25" fill="none" xmlns="http://www.w3.org/2000/svg">
<rect x="0.5" y="1" width="34" height="23" rx="3.5" fill="white" stroke="#D9D9D9"/>
<path fill-rule="evenodd" clip-rule="evenodd" d="M17.75 17.6569C16.5584 18.6852 15.0128 19.306 13.3238 19.306C9.55511 19.306 6.5 16.2154 6.5 12.403C6.5 8.59057 9.55511 5.5 13.3238 5.5C15.0128 5.5 16.5584 6.12075 17.75 7.14903C18.9416 6.12075 20.4872 5.5 22.1762 5.5C25.9449 5.5 29 8.59057 29 12.403C29 16.2154 25.9449 19.306 22.1762 19.306C20.4872 19.306 18.9416 18.6852 17.75 17.6569Z" fill="#ED0006"/>
<path fill-rule="evenodd" clip-rule="evenodd" d="M17.75 17.6569C19.2172 16.3908 20.1475 14.5068 20.1475 12.403C20.1475 10.2992 19.2172 8.41517 17.75 7.14903C18.9416 6.12075 20.4872 5.5 22.1762 5.5C25.9449 5.5 29 8.59057 29 12.403C29 16.2154 25.9449 19.306 22.1762 19.306C20.4872 19.306 18.9416 18.6852 17.75 17.6569Z" fill="#F9A000"/>
<path fill-rule="evenodd" clip-rule="evenodd" d="M17.75 7.14941C19.2172 8.41555 20.1476 10.2995 20.1476 12.4033C20.1476 14.5071 19.2172 16.3911 17.75 17.6573C16.2829 16.3911 15.3525 14.5071 15.3525 12.4033C15.3525 10.2995 16.2829 8.41555 17.75 7.14941Z" fill="#FF5E00"/>
</svg>
