<svg width="29" height="29" viewBox="0 0 29 29" fill="none" xmlns="http://www.w3.org/2000/svg">
<path d="M24.8254 15.586V13H22.6667V16C22.6667 16.2652 22.7805 16.5195 22.9829 16.707L25.9048 19.414V21H2.15873V19.414L5.08057 16.707C5.28301 16.5195 5.39677 16.2652 5.39683 16V12C5.39382 10.5948 5.79112 9.21374 6.54861 7.99632C7.30609 6.7789 8.39693 5.76823 9.71094 5.06641C11.025 4.36458 12.5156 3.99644 14.0323 3.99918C15.5491 4.00192 17.0382 4.37543 18.3492 5.082V2.847C17.3218 2.42552 16.229 2.15688 15.1111 2.051V0H12.9524V2.05C10.2913 2.30093 7.82514 3.45712 6.03081 5.29498C4.23649 7.13285 3.24144 9.52184 3.2381 12V15.586L0.316254 18.293C0.11382 18.4805 6.11325e-05 18.7348 0 19V22C0 22.2652 0.113719 22.5196 0.316139 22.7071C0.518559 22.8946 0.7931 23 1.07937 23H8.63492V24C8.63492 25.3261 9.20352 26.5979 10.2156 27.5355C11.2277 28.4732 12.6004 29 14.0318 29C15.4631 29 16.8358 28.4732 17.8479 27.5355C18.86 26.5979 19.4286 25.3261 19.4286 24V23H26.9841C27.2704 23 27.5449 22.8946 27.7474 22.7071C27.9498 22.5196 28.0635 22.2652 28.0635 22V19C28.0634 18.7348 27.9497 18.4805 27.7473 18.293L24.8254 15.586ZM17.2698 24C17.2698 24.7956 16.9287 25.5587 16.3214 26.1213C15.7142 26.6839 14.8905 27 14.0318 27C13.173 27 12.3493 26.6839 11.7421 26.1213C11.1348 25.5587 10.7937 24.7956 10.7937 24V23H17.2698V24Z" fill="url(#paint0_linear_238_11764)"/>
<defs>
<linearGradient id="paint0_linear_238_11764" x1="14.0318" y1="0" x2="14.0318" y2="29" gradientUnits="userSpaceOnUse">
<stop offset="0.291667" stop-color="#10A9F3"/>
<stop offset="0.614583" stop-color="#2F00FF"/>
<stop offset="0.880208" stop-color="#2F00FF" stop-opacity="0.56"/>
</linearGradient>
</defs>
</svg>
