<svg width="48" height="48" viewBox="0 0 48 48" fill="none" xmlns="http://www.w3.org/2000/svg">
<circle cx="24.0001" cy="15" r="9" fill="#E9E3FF"/>
<path fill-rule="evenodd" clip-rule="evenodd" d="M37.6468 39C38.216 39 38.6433 38.477 38.4888 37.9293C36.7109 31.628 30.8994 27 24.0001 27C17.1007 27 11.2892 31.628 9.51134 37.9293C9.35678 38.477 9.78414 39 10.3533 39H37.6468ZM41.8366 39.2308C40.5009 30.6044 33.0238 24 24.0001 24C14.9763 24 7.49919 30.6044 6.16357 39.2308C6.09288 39.6873 6.0394 40.1495 6.0038 40.6167C5.94569 41.3792 6.57289 42 7.33966 42H40.6605C41.4272 42 42.0544 41.3792 41.9963 40.6167C41.9607 40.1495 41.9072 39.6873 41.8366 39.2308Z" fill="#4318FF"/>
</svg>
