<svg width="22" height="20" viewBox="0 0 22 20" fill="none" xmlns="http://www.w3.org/2000/svg">
<path d="M11.0001 20.0001C9.81817 20.0001 8.64785 19.7673 7.55592 19.315C6.46399 18.8627 5.47184 18.1998 4.63611 17.364C3.80038 16.5283 3.13745 15.5362 2.68515 14.4442C2.23286 13.3523 2.00007 12.182 2.00007 11.0001C2.00007 9.81817 2.23286 8.64785 2.68515 7.55592C3.13745 6.46399 3.80038 5.47184 4.63611 4.63611C5.47184 3.80038 6.46399 3.13745 7.55592 2.68515C8.64785 2.23286 9.81817 2.00007 11.0001 2.00007C13.387 2.00007 15.6762 2.94828 17.364 4.63611C19.0519 6.32394 20.0001 8.61312 20.0001 11.0001C20.0001 13.387 19.0519 15.6762 17.364 17.364C15.6762 19.0519 13.387 20.0001 11.0001 20.0001ZM11.0001 18.0001C11.9193 18.0001 12.8296 17.819 13.6789 17.4672C14.5281 17.1154 15.2998 16.5998 15.9498 15.9498C16.5998 15.2998 17.1154 14.5281 17.4672 13.6789C17.819 12.8296 18.0001 11.9193 18.0001 11.0001C18.0001 10.0808 17.819 9.17057 17.4672 8.32129C17.1154 7.47201 16.5998 6.70033 15.9498 6.05032C15.2998 5.40031 14.5281 4.8847 13.6789 4.53291C12.8296 4.18113 11.9193 4.00007 11.0001 4.00007C9.14355 4.00007 7.36308 4.73757 6.05032 6.05032C4.73757 7.36308 4.00007 9.14355 4.00007 11.0001C4.00007 12.8566 4.73757 14.6371 6.05032 15.9498C7.36308 17.2626 9.14355 18.0001 11.0001 18.0001ZM12.0001 11.0001H15.0001V13.0001H10.0001V6.00007H12.0001V11.0001ZM0.74707 4.28207L4.28207 0.74707L5.69707 2.16107L2.16007 5.69707L0.74707 4.28207ZM17.7171 0.74707L21.2531 4.28207L19.8391 5.69707L16.3031 2.16107L17.7181 0.74707H17.7171Z" fill="#8F9BBA"/>
</svg>
