<svg width="32" height="32" viewBox="0 0 32 32" fill="none" xmlns="http://www.w3.org/2000/svg">
<path d="M10.6048 9.77775C10.6048 9.25034 10.4484 8.73476 10.1554 8.29623C9.86239 7.8577 9.44591 7.51591 8.95864 7.31407C8.47137 7.11224 7.93519 7.05943 7.41791 7.16232C6.90063 7.26522 6.42547 7.51919 6.05253 7.89213C5.67959 8.26507 5.42562 8.74023 5.32272 9.25751C5.21983 9.77479 5.27264 10.311 5.47447 10.7982C5.67631 11.2855 6.0181 11.702 6.45663 11.995C6.89516 12.288 7.41074 12.4444 7.93815 12.4444C8.6454 12.4444 9.32367 12.1635 9.82377 11.6634C10.3239 11.1633 10.6048 10.485 10.6048 9.77775ZM6.51593 9.77775C6.51593 9.49646 6.59934 9.22149 6.75562 8.98761C6.91189 8.75372 7.13401 8.57143 7.39389 8.46379C7.65377 8.35615 7.93973 8.32798 8.21561 8.38286C8.4915 8.43773 8.74491 8.57319 8.94381 8.77209C9.14272 8.97099 9.27817 9.22441 9.33305 9.50029C9.38792 9.77617 9.35976 10.0621 9.25211 10.322C9.14447 10.5819 8.96218 10.804 8.7283 10.9603C8.49441 11.1166 8.21944 11.2 7.93815 11.2C7.56096 11.2 7.19921 11.0501 6.93249 10.7834C6.66577 10.5167 6.51593 10.1549 6.51593 9.77775Z" fill="url(#paint0_linear_238_12129)"/>
<path d="M15.4484 18.4623L11.8928 14.9067C11.7263 14.7412 11.501 14.6483 11.2662 14.6483C11.0313 14.6483 10.806 14.7412 10.6395 14.9067L5.26172 20.3556V22.8712L11.2973 16.8356L14.2217 19.7156L10.8884 23.049H13.3328L20.8439 15.5378L26.6662 21.3334V18.8267L21.5017 13.6623C21.3352 13.4967 21.1099 13.4038 20.8751 13.4038C20.6402 13.4038 20.4149 13.4967 20.2484 13.6623L15.4484 18.4623Z" fill="url(#paint1_linear_238_12129)"/>
<path d="M28.444 11.7511V26.6667H3.55512V5.33332H19.9996C20.0019 4.73221 20.0856 4.13418 20.2485 3.55554H3.55512C3.08363 3.55554 2.63144 3.74284 2.29804 4.07624C1.96464 4.40964 1.77734 4.86182 1.77734 5.33332V26.6667C1.77734 27.1381 1.96464 27.5903 2.29804 27.9237C2.63144 28.2571 3.08363 28.4444 3.55512 28.4444H28.444C28.9155 28.4444 29.3677 28.2571 29.7011 27.9237C30.0345 27.5903 30.2218 27.1381 30.2218 26.6667V10.9689C29.6709 11.3156 29.0718 11.5791 28.444 11.7511Z" fill="url(#paint2_linear_238_12129)"/>
<path d="M26.6671 9.7778C29.1217 9.7778 31.1115 7.78796 31.1115 5.33336C31.1115 2.87876 29.1217 0.888916 26.6671 0.888916C24.2125 0.888916 22.2227 2.87876 22.2227 5.33336C22.2227 7.78796 24.2125 9.7778 26.6671 9.7778Z" fill="url(#paint3_linear_238_12129)"/>
<defs>
<linearGradient id="paint0_linear_238_12129" x1="7.93815" y1="7.11108" x2="7.93815" y2="12.4444" gradientUnits="userSpaceOnUse">
<stop offset="0.291667" stop-color="#10A9F3"/>
<stop offset="0.614583" stop-color="#2F00FF"/>
<stop offset="0.880208" stop-color="#2F00FF" stop-opacity="0.56"/>
</linearGradient>
<linearGradient id="paint1_linear_238_12129" x1="15.9639" y1="13.4038" x2="15.9639" y2="23.049" gradientUnits="userSpaceOnUse">
<stop offset="0.291667" stop-color="#10A9F3"/>
<stop offset="0.614583" stop-color="#2F00FF"/>
<stop offset="0.880208" stop-color="#2F00FF" stop-opacity="0.56"/>
</linearGradient>
<linearGradient id="paint2_linear_238_12129" x1="15.9996" y1="3.55554" x2="15.9996" y2="28.4444" gradientUnits="userSpaceOnUse">
<stop offset="0.291667" stop-color="#10A9F3"/>
<stop offset="0.614583" stop-color="#2F00FF"/>
<stop offset="0.880208" stop-color="#2F00FF" stop-opacity="0.56"/>
</linearGradient>
<linearGradient id="paint3_linear_238_12129" x1="26.6671" y1="0.888916" x2="26.6671" y2="9.7778" gradientUnits="userSpaceOnUse">
<stop offset="0.291667" stop-color="#10A9F3"/>
<stop offset="0.614583" stop-color="#2F00FF"/>
<stop offset="0.880208" stop-color="#2F00FF" stop-opacity="0.56"/>
</linearGradient>
</defs>
</svg>
