<svg width="36" height="33" viewBox="0 0 36 33" fill="none" xmlns="http://www.w3.org/2000/svg">
<g filter="url(#filter0_b_238_11804)">
<ellipse cx="18" cy="16.4985" rx="18" ry="16.4985" fill="#12121D" fill-opacity="0.05"/>
</g>
<path d="M18.0586 18.9375C19.4393 18.9375 20.5586 17.9115 20.5586 16.646C20.5586 15.3805 19.4393 14.3546 18.0586 14.3546C16.6779 14.3546 15.5586 15.3805 15.5586 16.646C15.5586 17.9115 16.6779 18.9375 18.0586 18.9375Z" stroke="url(#paint0_linear_238_11804)" stroke-width="2.03857" stroke-linecap="round" stroke-linejoin="round"/>
<path d="M24.2249 18.9376C24.114 19.168 24.0809 19.4236 24.1299 19.6713C24.1789 19.9191 24.3078 20.1477 24.4999 20.3278L24.5499 20.3736C24.7049 20.5155 24.8278 20.6839 24.9117 20.8694C24.9956 21.0549 25.0387 21.2536 25.0387 21.4544C25.0387 21.6551 24.9956 21.8539 24.9117 22.0394C24.8278 22.2248 24.7049 22.3933 24.5499 22.5352C24.3951 22.6772 24.2113 22.7899 24.009 22.8668C23.8067 22.9437 23.5898 22.9832 23.3708 22.9832C23.1517 22.9832 22.9349 22.9437 22.7325 22.8668C22.5302 22.7899 22.3464 22.6772 22.1916 22.5352L22.1416 22.4894C21.9452 22.3133 21.6958 22.1952 21.4254 22.1502C21.1551 22.1053 20.8763 22.1356 20.6249 22.2373C20.3785 22.3341 20.1683 22.4949 20.0202 22.6998C19.8721 22.9048 19.7927 23.1449 19.7916 23.3907V23.5205C19.7916 23.9257 19.616 24.3142 19.3034 24.6007C18.9909 24.8872 18.567 25.0482 18.1249 25.0482C17.6829 25.0482 17.259 24.8872 16.9464 24.6007C16.6339 24.3142 16.4583 23.9257 16.4583 23.5205V23.4518C16.4518 23.199 16.3625 22.9538 16.202 22.7481C16.0415 22.5424 15.8172 22.3857 15.5583 22.2984C15.3069 22.1967 15.0281 22.1664 14.7578 22.2113C14.4874 22.2563 14.238 22.3744 14.0416 22.5505L13.9916 22.5963C13.8368 22.7383 13.653 22.851 13.4507 22.9279C13.2483 23.0048 13.0315 23.0443 12.8124 23.0443C12.5934 23.0443 12.3765 23.0048 12.1742 22.9279C11.9719 22.851 11.7881 22.7383 11.6333 22.5963C11.4783 22.4544 11.3554 22.2859 11.2715 22.1005C11.1876 21.915 11.1445 21.7163 11.1445 21.5155C11.1445 21.3147 11.1876 21.116 11.2715 20.9305C11.3554 20.7451 11.4783 20.5766 11.6333 20.4347L11.6833 20.3889C11.8754 20.2089 12.0043 19.9802 12.0533 19.7324C12.1023 19.4847 12.0692 19.2291 11.9583 18.9987C11.8526 18.7728 11.6772 18.5801 11.4537 18.4444C11.2301 18.3087 10.9681 18.2359 10.6999 18.2349H10.5583C10.1162 18.2349 9.69232 18.074 9.37976 17.7875C9.0672 17.501 8.8916 17.1124 8.8916 16.7073C8.8916 16.3021 9.0672 15.9136 9.37976 15.6271C9.69232 15.3406 10.1162 15.1796 10.5583 15.1796H10.6333C10.9091 15.1737 11.1766 15.0919 11.401 14.9448C11.6254 14.7977 11.7964 14.5921 11.8916 14.3547C12.0025 14.1243 12.0356 13.8688 11.9866 13.621C11.9376 13.3732 11.8087 13.1446 11.6166 12.9646L11.5666 12.9187C11.4116 12.7769 11.2887 12.6084 11.2048 12.4229C11.121 12.2375 11.0778 12.0387 11.0778 11.8379C11.0778 11.6372 11.121 11.4384 11.2048 11.2529C11.2887 11.0675 11.4116 10.899 11.5666 10.7571C11.7214 10.6151 11.9052 10.5024 12.1075 10.4255C12.3099 10.3487 12.5267 10.3091 12.7458 10.3091C12.9648 10.3091 13.1817 10.3487 13.384 10.4255C13.5863 10.5024 13.7701 10.6151 13.9249 10.7571L13.9749 10.803C14.1713 10.979 14.4208 11.0972 14.6911 11.1421C14.9614 11.187 15.2403 11.1567 15.4916 11.055H15.5583C15.8047 10.9582 16.0149 10.7974 16.163 10.5925C16.3111 10.3876 16.3905 10.1474 16.3916 9.90166V9.77181C16.3916 9.36665 16.5672 8.97809 16.8798 8.69161C17.1923 8.40512 17.6162 8.24417 18.0583 8.24417C18.5003 8.24417 18.9242 8.40512 19.2368 8.69161C19.5493 8.97809 19.7249 9.36665 19.7249 9.77181V9.84055C19.726 10.0863 19.8055 10.3265 19.9535 10.5314C20.1016 10.7363 20.3118 10.8971 20.5583 10.9939C20.8096 11.0956 21.0884 11.1259 21.3588 11.081C21.6291 11.0361 21.8785 10.9179 22.0749 10.7419L22.1249 10.696C22.2797 10.554 22.4635 10.4413 22.6659 10.3644C22.8682 10.2876 23.0851 10.248 23.3041 10.248C23.5231 10.248 23.74 10.2876 23.9423 10.3644C24.1447 10.4413 24.3285 10.554 24.4833 10.696C24.6382 10.8379 24.7612 11.0064 24.845 11.1918C24.9289 11.3773 24.9721 11.5761 24.9721 11.7768C24.9721 11.9776 24.9289 12.1764 24.845 12.3618C24.7612 12.5473 24.6382 12.7158 24.4833 12.8576L24.4333 12.9035C24.2412 13.0835 24.1123 13.3121 24.0633 13.5599C24.0143 13.8077 24.0473 14.0632 24.1583 14.2936V14.3547C24.2639 14.5806 24.4393 14.7733 24.6629 14.909C24.8865 15.0447 25.1484 15.1175 25.4166 15.1185H25.5583C26.0003 15.1185 26.4242 15.2795 26.7368 15.566C27.0493 15.8524 27.2249 16.241 27.2249 16.6462C27.2249 17.0513 27.0493 17.4399 26.7368 17.7264C26.4242 18.0129 26.0003 18.1738 25.5583 18.1738H25.4833C25.2151 18.1748 24.9531 18.2476 24.7295 18.3833C24.506 18.519 24.3306 18.7117 24.2249 18.9376Z" stroke="url(#paint1_linear_238_11804)" stroke-width="2.03857" stroke-linecap="round" stroke-linejoin="round"/>
<defs>
<filter id="filter0_b_238_11804" x="-27.181" y="-27.181" width="90.362" height="87.3589" filterUnits="userSpaceOnUse" color-interpolation-filters="sRGB">
<feFlood flood-opacity="0" result="BackgroundImageFix"/>
<feGaussianBlur in="BackgroundImage" stdDeviation="13.5905"/>
<feComposite in2="SourceAlpha" operator="in" result="effect1_backgroundBlur_238_11804"/>
<feBlend mode="normal" in="SourceGraphic" in2="effect1_backgroundBlur_238_11804" result="shape"/>
</filter>
<linearGradient id="paint0_linear_238_11804" x1="18.0586" y1="14.3546" x2="18.0586" y2="18.9375" gradientUnits="userSpaceOnUse">
<stop offset="0.291667" stop-color="#10A9F3"/>
<stop offset="0.614583" stop-color="#2F00FF"/>
<stop offset="0.880208" stop-color="#2F00FF" stop-opacity="0.56"/>
</linearGradient>
<linearGradient id="paint1_linear_238_11804" x1="18.0583" y1="8.24417" x2="18.0583" y2="25.0482" gradientUnits="userSpaceOnUse">
<stop offset="0.291667" stop-color="#10A9F3"/>
<stop offset="0.614583" stop-color="#2F00FF"/>
<stop offset="0.880208" stop-color="#2F00FF" stop-opacity="0.56"/>
</linearGradient>
</defs>
</svg>
