<svg width="35" height="24" viewBox="0 0 35 24" fill="none" xmlns="http://www.w3.org/2000/svg">
<rect x="0.5" y="0.5" width="34" height="23" rx="3.5" fill="white" stroke="#D9D9D9"/>
<path fill-rule="evenodd" clip-rule="evenodd" d="M18.8055 8.14241L17.0275 8.52398V7.08251L18.8055 6.70801V8.14241ZM11.5803 7.52767L9.852 7.8951L9.84491 13.555C9.84491 14.6008 10.6312 15.371 11.6795 15.371C12.2603 15.371 12.6853 15.265 12.9191 15.1378V13.7034C12.6924 13.7952 11.5733 14.1203 11.5733 13.0745V10.5661H12.9191V9.061H11.5733L11.5803 7.52767ZM7.39418 10.4742C7.01876 10.4742 6.79209 10.5802 6.79209 10.8558C6.79209 11.1567 7.18219 11.289 7.66615 11.4532C8.45512 11.7209 9.49355 12.0732 9.49794 13.3784C9.49794 14.6432 8.48502 15.371 7.01168 15.371C6.40251 15.371 5.73667 15.2509 5.07792 14.9682V13.2865C5.67292 13.6115 6.42376 13.8518 7.01168 13.8518C7.40834 13.8518 7.69168 13.7458 7.69168 13.4208C7.69168 13.0875 7.26881 12.9351 6.75828 12.7512C5.98078 12.4711 5 12.1178 5 10.9406C5 9.68988 5.95625 8.94088 7.39418 8.94088C7.9821 8.94088 8.56293 9.03274 9.15085 9.26592V10.9264C8.61252 10.6367 7.93251 10.4742 7.39418 10.4742ZM27.9429 8.94088C29.6217 8.94088 30.5 10.3682 30.5 12.1771C30.5 12.2748 30.4953 12.4382 30.4913 12.5767V12.5767V12.5767V12.5767V12.5768C30.4884 12.6787 30.4858 12.7671 30.4858 12.806H27.0221C27.1 13.6398 27.7092 13.88 28.3962 13.88C29.0975 13.88 29.65 13.7317 30.1317 13.4914V14.9046C29.65 15.1731 29.0125 15.3639 28.1696 15.3639C26.4412 15.3639 25.2371 14.2899 25.2371 12.163C25.2371 10.3682 26.2571 8.94088 27.9429 8.94088ZM27.9358 10.3753C27.4895 10.3753 27.0008 10.7074 27.0008 11.5058H28.8283C28.8283 10.7074 28.3679 10.3753 27.9358 10.3753ZM15.1221 9.5839L15.0088 9.06101H13.4788V15.2438H15.2496V11.0536C15.6676 10.5095 16.3759 10.6085 16.5955 10.6862V9.06101C16.3688 8.97622 15.5401 8.82076 15.1221 9.5839ZM17.0274 9.06101H18.8053V15.2438H17.0274V9.06101ZM22.5028 8.94088C21.8086 8.94088 21.3624 9.26592 21.1145 9.49203L21.0224 9.05394H19.4641V17.2929L21.2349 16.9184L21.242 14.9188C21.497 15.1025 21.8724 15.3639 22.4957 15.3639C23.7637 15.3639 24.9182 14.3464 24.9182 12.1065C24.9112 10.0573 23.7424 8.94088 22.5028 8.94088ZM22.0778 13.8094C21.6599 13.8094 21.412 13.661 21.242 13.4773L21.2349 10.8558C21.419 10.6509 21.674 10.5095 22.0778 10.5095C22.7224 10.5095 23.1686 11.2303 23.1686 12.1559C23.1686 13.1028 22.7295 13.8094 22.0778 13.8094Z" fill="#6461FC"/>
</svg>
