<svg width="27" height="27" viewBox="0 0 27 27" fill="none" xmlns="http://www.w3.org/2000/svg">
<path d="M25.7786 0.497873C25.7003 0.308352 25.5497 0.155465 25.3582 0.0710184C25.1668 -0.0134285 24.9492 -0.0229336 24.7507 0.0444804C24.5522 0.111894 24.3881 0.251037 24.2925 0.432962C24.197 0.614887 24.1773 0.825587 24.2377 1.02123C25.4923 4.52339 23.0019 7.13886 21.1031 8.53972L20.336 7.47202C20.078 7.11394 19.5013 6.81619 19.053 6.81094L14.7475 6.8293C14.2215 6.84473 13.7096 6.99791 13.2659 7.27265L0.579047 15.9126C0.283949 16.1143 0.0831576 16.4213 0.0206364 16.7665C-0.0418848 17.1117 0.0389584 17.4668 0.245466 17.7542L6.01088 25.7659C6.44305 26.3627 7.13318 26.2906 7.74902 25.8734L20.4359 17.2322C20.8006 16.9816 21.2219 16.4412 21.3705 16.028L22.7183 11.9028C22.8669 11.491 22.7764 10.8627 22.5184 10.5046L22.0511 9.85402C24.601 7.95603 27.248 4.60209 25.7786 0.497873V0.497873ZM19.8754 12.7725C19.6417 12.9314 19.378 13.044 19.0995 13.1039C18.8209 13.1638 18.533 13.1698 18.252 13.1215C17.9711 13.0733 17.7027 12.9718 17.4622 12.8228C17.2217 12.6737 17.0137 12.4802 16.8503 12.2531C16.5193 11.7935 16.3896 11.2252 16.4896 10.6729C16.5896 10.1206 16.9112 9.62934 17.3837 9.30705C17.7542 9.05497 18.1965 8.9216 18.6488 8.9256C19.1011 8.9296 19.5408 9.07076 19.9065 9.32935C19.5392 9.54446 19.2866 9.67038 19.2393 9.69006C19.0719 9.76758 18.9366 9.89804 18.8555 10.06C18.7744 10.2221 18.7524 10.406 18.7931 10.5818C18.8337 10.7575 18.9346 10.9146 19.0792 11.0274C19.2239 11.1402 19.4037 11.2019 19.5891 11.2024C19.7053 11.2024 19.8241 11.1762 19.9362 11.125C20.1982 11.0043 20.4791 10.8614 20.7722 10.6922C20.8396 11.0858 20.7912 11.4898 20.6326 11.8579C20.4739 12.2259 20.2115 12.5429 19.8754 12.7725V12.7725Z" fill="url(#paint0_linear_238_11747)"/>
<defs>
<linearGradient id="paint0_linear_238_11747" x1="13.1" y1="0" x2="13.1" y2="26.2" gradientUnits="userSpaceOnUse">
<stop offset="0.291667" stop-color="#10A9F3"/>
<stop offset="0.614583" stop-color="#2F00FF"/>
<stop offset="0.880208" stop-color="#2F00FF" stop-opacity="0.56"/>
</linearGradient>
</defs>
</svg>
