<svg width="39" height="33" viewBox="0 0 39 33" fill="none" xmlns="http://www.w3.org/2000/svg">
<path fill-rule="evenodd" clip-rule="evenodd" d="M13.1598 26.8509C11.1003 26.8509 8.33417 25.8662 6.93077 24.25C0.203565 24.25 0 32.8048 0 32.8048H26.1928C26.1952 32.8048 26.7196 24.2149 19.159 24.2149C17.7604 25.8487 15.2242 26.8509 13.1598 26.8509Z" fill="url(#paint0_linear_238_11780)"/>
<path fill-rule="evenodd" clip-rule="evenodd" d="M18.9402 13.6469C18.9402 16.3903 16.2938 21.636 13.0272 21.636C9.7606 21.636 7.11426 16.3903 7.11426 13.6469C7.11426 10.9079 9.7582 8.68201 13.0272 8.68201C16.2938 8.68201 18.9402 10.9079 18.9402 13.6469Z" fill="url(#paint1_linear_238_11780)"/>
<path fill-rule="evenodd" clip-rule="evenodd" d="M29.9312 0C25.357 0 21.6426 2.53947 21.6426 5.67982C21.6426 8.54386 24.7415 10.9035 28.7578 11.2961L26.3964 15.2697L32.9967 10.9518C36.0549 10.1162 38.2223 8.07237 38.2223 5.67982C38.2199 2.53947 34.5102 0 29.9312 0Z" fill="url(#paint2_linear_238_11780)"/>
<defs>
<linearGradient id="paint0_linear_238_11780" x1="13.1007" y1="24.2149" x2="13.1007" y2="32.8048" gradientUnits="userSpaceOnUse">
<stop offset="0.291667" stop-color="#10A9F3"/>
<stop offset="0.614583" stop-color="#2F00FF"/>
<stop offset="0.880208" stop-color="#2F00FF" stop-opacity="0.56"/>
</linearGradient>
<linearGradient id="paint1_linear_238_11780" x1="13.0272" y1="8.68201" x2="13.0272" y2="21.636" gradientUnits="userSpaceOnUse">
<stop offset="0.291667" stop-color="#10A9F3"/>
<stop offset="0.614583" stop-color="#2F00FF"/>
<stop offset="0.880208" stop-color="#2F00FF" stop-opacity="0.56"/>
</linearGradient>
<linearGradient id="paint2_linear_238_11780" x1="29.9324" y1="0" x2="29.9324" y2="15.2697" gradientUnits="userSpaceOnUse">
<stop offset="0.291667" stop-color="#10A9F3"/>
<stop offset="0.614583" stop-color="#2F00FF"/>
<stop offset="0.880208" stop-color="#2F00FF" stop-opacity="0.56"/>
</linearGradient>
</defs>
</svg>
