<svg width="15" height="14" viewBox="0 0 15 14" fill="none" xmlns="http://www.w3.org/2000/svg">
<path d="M0.75 0.99475C0.75 0.58375 1.08375 0.25 1.49475 0.25H13.5052C13.9163 0.25 14.25 0.58375 14.25 0.99475V13.0052C14.2498 13.2027 14.1713 13.392 14.0316 13.5316C13.892 13.6713 13.7027 13.7498 13.5052 13.75H1.49475C1.29729 13.7498 1.10798 13.6713 0.968351 13.5316C0.828727 13.392 0.750199 13.2027 0.75 13.0052V0.99475ZM2.25 1.75V12.25H12.75V1.75H2.25ZM6.4665 4.31125L10.1258 6.75025C10.1669 6.77764 10.2006 6.81476 10.224 6.85834C10.2473 6.90191 10.2595 6.95057 10.2595 7C10.2595 7.04943 10.2473 7.09809 10.224 7.14166C10.2006 7.18524 10.1669 7.22236 10.1258 7.24975L6.46575 9.68875C6.42062 9.71866 6.36824 9.73581 6.31415 9.73836C6.26007 9.74092 6.2063 9.72879 6.15856 9.70326C6.11081 9.67773 6.07086 9.63976 6.04294 9.59337C6.01503 9.54698 6.00019 9.49389 6 9.43975V4.56025C6.0001 4.50599 6.01492 4.45277 6.04287 4.40626C6.07082 4.35975 6.11086 4.3217 6.15873 4.29615C6.2066 4.2706 6.26051 4.25851 6.3147 4.26117C6.3689 4.26383 6.42136 4.28113 6.4665 4.31125Z" fill="#3DD355"/>
</svg>
