<svg width="34" height="34" viewBox="0 0 34 34" fill="none" xmlns="http://www.w3.org/2000/svg">
<path d="M6.34098 6.90607H27.591C27.8392 6.90595 28.0872 6.9217 28.3334 6.95322C28.2499 6.36737 28.0487 5.80448 27.7418 5.2985C27.4349 4.79252 27.0288 4.35393 26.5478 4.00917C26.0668 3.66441 25.521 3.42061 24.9433 3.29249C24.3656 3.16437 23.7679 3.15457 23.1863 3.26369L5.71012 6.24732H5.6902C4.59321 6.4571 3.6177 7.07775 2.96289 7.98252C3.94942 7.28082 5.13035 6.90451 6.34098 6.90607V6.90607Z" fill="url(#paint0_linear_238_11754)"/>
<path d="M27.5918 8.5H6.3418C5.215 8.50123 4.13471 8.94939 3.33795 9.74615C2.54119 10.5429 2.09303 11.6232 2.0918 12.75V25.5C2.09303 26.6268 2.54119 27.7071 3.33795 28.5038C4.13471 29.3006 5.215 29.7488 6.3418 29.75H27.5918C28.7186 29.7488 29.7989 29.3006 30.5956 28.5038C31.3924 27.7071 31.8406 26.6268 31.8418 25.5V12.75C31.8406 11.6232 31.3924 10.5429 30.5956 9.74615C29.7989 8.94939 28.7186 8.50123 27.5918 8.5V8.5ZM24.4375 21.25C24.0172 21.25 23.6064 21.1254 23.2569 20.8919C22.9075 20.6584 22.6351 20.3265 22.4743 19.9382C22.3134 19.5499 22.2713 19.1226 22.3533 18.7104C22.4353 18.2982 22.6377 17.9196 22.9349 17.6224C23.2321 17.3252 23.6107 17.1228 24.0229 17.0408C24.4351 16.9588 24.8624 17.0009 25.2507 17.1618C25.639 17.3226 25.9709 17.595 26.2044 17.9444C26.4379 18.2939 26.5625 18.7047 26.5625 19.125C26.5625 19.6886 26.3386 20.2291 25.9401 20.6276C25.5416 21.0261 25.0011 21.25 24.4375 21.25Z" fill="url(#paint1_linear_238_11754)"/>
<path d="M2.125 17.2324V10.625C2.125 9.18598 2.92188 6.77344 5.6877 6.25082C8.03516 5.81055 10.3594 5.81055 10.3594 5.81055C10.3594 5.81055 11.8867 6.87305 10.625 6.87305C9.36328 6.87305 9.39648 8.5 10.625 8.5C11.8535 8.5 10.625 10.0605 10.625 10.0605L5.67773 15.6719L2.125 17.2324Z" fill="url(#paint2_linear_238_11754)"/>
<defs>
<linearGradient id="paint0_linear_238_11754" x1="15.6481" y1="3.18854" x2="15.6481" y2="7.98252" gradientUnits="userSpaceOnUse">
<stop offset="0.291667" stop-color="#10A9F3"/>
<stop offset="0.614583" stop-color="#2F00FF"/>
<stop offset="0.880208" stop-color="#2F00FF" stop-opacity="0.56"/>
</linearGradient>
<linearGradient id="paint1_linear_238_11754" x1="16.9668" y1="8.5" x2="16.9668" y2="29.75" gradientUnits="userSpaceOnUse">
<stop offset="0.291667" stop-color="#10A9F3"/>
<stop offset="0.614583" stop-color="#2F00FF"/>
<stop offset="0.880208" stop-color="#2F00FF" stop-opacity="0.56"/>
</linearGradient>
<linearGradient id="paint2_linear_238_11754" x1="6.648" y1="5.81055" x2="6.648" y2="17.2324" gradientUnits="userSpaceOnUse">
<stop offset="0.291667" stop-color="#10A9F3"/>
<stop offset="0.614583" stop-color="#2F00FF"/>
<stop offset="0.880208" stop-color="#2F00FF" stop-opacity="0.56"/>
</linearGradient>
</defs>
</svg>
